<svg version="1.1" id="Layer_1" xmlns="http://www.w3.org/2000/svg" xmlns:xlink="http://www.w3.org/1999/xlink" x="220px" y="105px"
	 width="100%" viewBox="0 0 1024 768" enable-background="new 0 0 1024 768" xml:space="preserve">
<path fill="#000000" opacity="1.000000" stroke="none" 
	d="
M533.573792,187.395630 
	C538.709656,189.419693 543.889648,188.960754 548.710693,191.663834 
	C556.493103,196.027283 562.410706,201.748993 567.590332,208.853836 
	C571.202881,213.809052 576.344788,217.660233 581.601807,220.763550 
	C588.047974,224.568848 589.406128,231.172012 591.977783,237.055740 
	C593.838928,241.313766 595.243347,245.570465 599.227173,248.464645 
	C602.950745,251.169800 604.252930,259.185425 602.031372,264.718536 
	C599.390869,271.294891 598.765686,278.253082 598.050781,285.187775 
	C597.490051,290.627228 600.148560,294.552032 604.719482,296.968933 
	C607.573486,298.478027 608.289429,301.165985 609.784302,303.507141 
	C616.993713,314.798218 615.673889,326.103271 610.076050,337.482605 
	C608.971497,339.727966 608.184082,342.028015 608.038147,344.619873 
	C607.815796,348.571533 606.055542,352.024902 603.346008,354.861023 
	C601.486877,356.807007 599.578491,358.602814 598.973572,361.384552 
	C598.680298,362.732941 597.771118,363.730194 596.519958,364.388977 
	C583.398132,371.298523 576.396484,382.830627 571.568115,396.354340 
	C568.914612,403.786469 562.968567,409.181213 557.463440,414.676636 
	C556.290283,415.847778 554.499451,416.649292 553.824890,418.028046 
	C550.765503,424.281006 546.615417,428.927551 539.779663,431.499298 
	C536.219666,432.838623 536.787476,437.518097 540.475220,438.625305 
	C543.290955,439.470642 544.972656,441.069519 546.606750,443.277161 
	C548.713989,446.123993 550.995422,449.194580 555.029358,445.518188 
	C555.514221,445.076233 557.009338,444.912292 557.352051,445.271759 
	C561.273499,449.385376 566.030823,446.491150 570.334717,446.786163 
	C574.281555,447.056732 578.067932,447.527313 581.146240,449.959991 
	C585.653320,453.521759 590.564697,455.087402 596.599609,454.190765 
	C597.735901,452.485931 597.304016,449.926208 599.485718,448.031647 
	C605.387207,442.906769 605.007080,442.926758 611.277222,447.041565 
	C616.678162,450.585999 621.918396,454.358063 626.406433,458.897278 
	C630.849854,463.391327 635.999207,464.347900 641.832092,464.430634 
	C647.982117,464.517914 653.398315,466.129669 657.864136,471.071350 
	C666.937988,481.112213 676.698364,481.585602 686.627075,472.281677 
	C690.742493,468.425232 695.499695,467.853455 700.305969,467.604980 
	C706.100037,467.305481 711.794006,468.924866 717.370300,470.614044 
	C724.860291,472.882935 735.353577,485.606171 736.082275,493.394989 
	C736.158752,494.212494 736.186951,495.065674 736.043640,495.867645 
	C735.000366,501.706055 739.010498,507.675995 744.680115,508.332581 
	C745.833801,508.466187 747.102478,507.605774 748.380310,507.182983 
	C750.184204,509.325134 749.957520,511.876190 749.967285,514.322632 
	C750.007202,524.319824 750.037964,534.317749 749.947571,544.314331 
	C749.916870,547.709290 750.509277,550.540100 754.627014,550.386230 
	C758.300476,550.248901 762.275269,550.143127 762.016541,544.640381 
	C761.516113,533.996948 762.768982,522.914734 760.134827,512.840759 
	C758.026917,504.779205 758.247681,496.767334 757.335266,488.856659 
	C756.787903,484.110413 759.447571,477.782623 764.259094,474.535828 
	C770.959900,470.014221 778.309265,467.787201 786.829102,469.168945 
	C793.110901,470.187683 799.692993,467.952301 806.118042,469.731354 
	C807.875610,470.218018 810.106384,470.045837 811.022583,471.784912 
	C813.888245,477.224792 819.195129,476.831299 824.030640,477.593018 
	C829.062866,478.385742 831.734619,474.146027 835.166626,471.875702 
	C840.231140,468.525452 845.603333,466.898834 851.506104,466.602753 
	C856.629639,466.345764 860.989807,463.574738 865.610840,461.944611 
	C873.406006,459.194855 879.913818,462.125427 886.733704,464.436981 
	C888.691467,465.100555 889.081421,467.145721 889.092712,469.044952 
	C889.129333,475.223267 889.847656,481.335236 890.733093,487.436157 
	C891.030640,489.486572 890.643982,491.570068 889.652039,493.257172 
	C885.378906,500.524994 886.223450,508.057739 887.666138,515.856018 
	C888.510437,520.419617 888.450317,525.273987 886.486511,529.636963 
	C885.110352,532.694397 885.844788,535.083862 887.481018,537.562744 
	C888.672852,539.368347 889.994080,541.107361 891.003967,543.010620 
	C894.255920,549.139526 895.614502,555.205627 891.722778,561.842957 
	C889.927124,564.905457 889.535522,568.785645 888.471436,572.284180 
	C887.407654,575.781616 885.309753,577.999146 881.417053,578.323303 
	C877.561829,578.644470 873.998413,580.031921 870.480713,581.634216 
	C867.655884,582.920837 864.737488,584.551636 861.546875,582.242676 
	C860.468933,581.462585 859.135193,581.785461 858.418579,582.838928 
	C853.755554,589.693542 847.823120,585.900085 842.711426,584.187134 
	C839.653931,583.162476 836.520264,582.015015 833.505066,580.771973 
	C830.352173,584.919556 829.253967,584.383972 825.205750,581.720032 
	C817.640198,576.741577 817.737549,568.025513 814.213684,561.149963 
	C812.549438,557.902832 811.481873,555.275757 807.544922,554.996460 
	C805.746826,554.868835 804.314148,554.053406 803.785583,552.221069 
	C803.207703,550.217468 804.828369,549.663208 806.139099,548.972351 
	C807.539978,548.233948 807.794067,546.956421 807.744202,545.576538 
	C807.305420,533.429260 808.505554,521.242126 807.002258,509.127136 
	C806.184204,502.535095 805.161377,501.737244 798.450317,501.359528 
	C796.643921,504.885742 797.106628,508.785034 797.030273,512.546753 
	C796.834229,522.205200 796.951111,531.870544 796.716492,541.527588 
	C796.637939,544.761536 795.717346,547.642273 791.215759,546.020325 
	C789.158691,545.279175 788.469666,544.192993 788.447021,541.981995 
	C788.380005,535.436157 789.264709,529.116821 791.125061,522.811157 
	C792.288757,518.866821 792.928101,514.601685 792.854126,510.497620 
	C792.745605,504.476318 788.548218,500.356201 784.476013,496.522583 
	C783.066589,495.195740 782.317017,492.196320 779.484436,493.188812 
	C775.911682,494.440643 771.381897,495.122345 770.107605,499.087067 
	C769.019775,502.471069 769.679321,506.408356 769.511780,510.098450 
	C769.233826,516.222656 769.573669,522.325439 769.871399,528.439697 
	C769.955139,530.159119 769.363098,532.238953 768.350464,533.616333 
	C766.206848,536.532166 765.955750,539.681274 765.921326,543.070129 
	C765.838806,551.200684 761.376343,554.751465 753.277710,553.763672 
	C750.519226,553.427246 747.151184,553.140076 744.918457,554.377014 
	C738.424805,557.974304 732.027710,555.676086 725.551758,555.234680 
	C721.914490,554.986816 718.266846,554.744202 714.860229,556.751404 
	C713.132568,557.769348 710.873962,558.430786 709.146790,557.098267 
	C704.887329,553.811951 700.981567,555.830139 696.997864,557.462769 
	C693.062927,559.075378 689.019104,560.287292 685.470703,562.948792 
	C683.063416,564.754333 679.420349,564.807068 676.852905,563.172302 
	C672.906616,560.659668 667.797791,559.747437 665.445496,554.812988 
	C663.826050,551.415833 660.928711,553.223450 658.432007,553.904602 
	C652.230835,555.596375 646.343750,555.597900 641.290466,550.790344 
	C640.002258,549.564758 638.896057,548.198975 639.363464,546.451050 
	C640.620178,541.751160 638.861816,537.184998 638.991943,532.542358 
	C639.058594,530.164551 638.154053,528.039062 636.636780,526.108398 
	C632.747192,521.159119 632.667603,516.511047 636.197266,511.089508 
	C640.893677,503.875916 640.893677,503.875946 645.341919,502.019989 
	C640.446472,501.237305 635.315979,498.541748 630.620422,501.374786 
	C625.686646,504.351562 625.670837,510.097595 625.625793,515.287415 
	C625.607178,517.427124 627.294495,518.822693 629.053284,519.919312 
	C631.092224,521.190552 631.034485,522.774902 629.765320,524.564941 
	C625.391968,530.732666 622.746765,537.713013 620.366028,544.800476 
	C617.802307,552.432434 612.062622,554.615906 604.134216,553.719727 
	C596.958618,552.908569 595.035278,548.829529 593.551392,543.256470 
	C593.130432,541.675415 592.731567,539.996521 590.730042,538.559143 
	C586.543152,541.301880 581.750793,543.711426 577.863586,547.145569 
	C570.656189,553.512939 561.965820,555.967896 553.015015,558.077026 
	C552.046326,558.305237 550.749817,558.121338 550.130066,558.695251 
	C545.334839,563.136108 541.284729,560.262756 537.273376,557.493774 
	C533.899658,555.164917 530.115845,554.950256 526.257812,555.038086 
	C523.035217,555.111389 520.341370,554.274963 518.629761,551.305298 
	C517.185791,548.799927 514.633545,547.554993 512.124451,547.002014 
	C507.538910,545.991516 504.853210,543.032227 501.861816,539.727478 
	C494.040680,531.087036 491.375946,520.845642 490.995117,509.645081 
	C490.882263,506.327606 491.148865,502.957428 489.907532,499.763397 
	C489.319824,498.251099 489.499542,496.786469 490.268951,495.428711 
	C496.888611,483.747528 499.652863,470.655975 503.949554,458.125519 
	C504.057526,457.810577 504.173004,457.494873 504.241852,457.170380 
	C504.776733,454.649475 508.984833,453.265259 507.167938,450.308380 
	C504.822845,446.491974 501.166534,443.688324 497.412994,441.226349 
	C490.879913,436.941284 483.108368,434.392517 478.450043,427.495972 
	C478.008026,426.841553 477.266113,426.207733 476.530365,425.960663 
	C463.169006,421.474335 457.275238,408.810974 448.020996,399.847900 
	C446.697144,398.565735 446.599976,396.106110 445.489563,394.499329 
	C440.060181,386.642639 436.172394,377.975494 431.724976,369.586853 
	C428.792114,364.054993 422.744019,360.839996 418.311188,356.348907 
	C411.846039,349.798889 405.950806,343.003479 404.465820,333.472290 
	C403.495422,327.244019 403.909424,321.069519 406.789673,315.493500 
	C409.600861,310.051208 413.238586,304.792969 415.330566,299.241394 
	C417.433655,293.660400 421.085907,288.088226 417.724457,280.591614 
	C414.070984,272.443848 412.319794,263.116943 414.637726,253.758377 
	C415.429474,250.561676 413.910492,247.549698 413.081818,244.501770 
	C410.313843,234.321457 412.503204,226.740616 419.421265,222.263092 
	C419.978760,221.902252 420.533508,221.361008 421.140350,221.278931 
	C429.636353,220.129639 433.658752,213.800461 437.481323,207.244934 
	C438.959381,204.710129 440.764923,202.613144 443.823029,202.037659 
	C446.036163,201.621185 447.633789,200.061447 448.092072,198.204712 
	C449.113098,194.067688 452.125763,191.970108 455.234161,189.703629 
	C457.748810,187.870041 460.059967,185.919617 461.895477,183.147964 
	C465.473114,177.745697 473.305878,176.652283 478.793884,180.304489 
	C482.342987,182.666397 485.545135,183.085526 489.867218,181.476974 
	C496.781036,178.903885 504.238342,177.923584 511.087891,182.104492 
	C517.936096,186.284561 525.585632,186.525482 533.573792,187.395630 
M433.845917,255.988266 
	C431.033417,259.482330 428.855774,263.140808 430.688110,268.034729 
	C431.871887,265.543488 432.970215,263.231995 434.095459,260.863831 
	C437.169189,262.495300 434.510468,265.264130 436.393738,267.264526 
	C439.941956,268.072662 443.284790,268.044159 447.265656,265.790009 
	C452.743164,262.688416 456.209381,257.375549 461.669891,254.444153 
	C466.733917,251.725601 474.940857,252.685654 477.868195,256.809448 
	C487.377747,248.941742 498.970276,252.355637 509.716919,251.555496 
	C513.946838,251.240555 517.886292,250.937027 521.579529,249.118317 
	C523.875427,247.987732 526.241089,247.584412 528.634766,246.941788 
	C534.225464,245.440872 539.431091,247.557281 544.795288,247.791946 
	C550.538208,248.043182 555.785706,248.767883 560.727966,251.829071 
	C564.934875,254.434814 569.315735,256.778473 573.731323,259.018036 
	C575.222290,259.774323 577.041260,261.158752 578.767029,259.377167 
	C580.387451,257.704285 579.436279,255.969101 578.567993,254.328247 
	C577.868042,253.005463 576.888855,251.734344 577.164917,250.152405 
	C578.102722,244.779434 576.450134,240.797363 572.299133,236.948456 
	C568.499390,233.425201 564.721008,229.963501 559.981201,228.175064 
	C557.301025,227.163788 555.204346,226.047287 553.759216,223.700089 
	C552.260559,221.266052 550.311279,219.307785 548.209351,217.362579 
	C540.576416,210.298767 531.230286,205.411346 524.058228,197.946869 
	C515.430664,201.025650 515.432190,201.020432 507.416565,198.666931 
	C506.951080,198.530258 506.429657,198.571075 505.933411,198.554214 
	C501.327606,198.397827 497.193298,196.822495 493.207092,194.592438 
	C487.285278,191.279541 479.620270,194.688965 478.198883,201.340073 
	C477.664764,203.839493 476.017334,205.465027 474.076355,205.864655 
	C471.354004,206.425125 469.002686,207.895905 466.118195,208.162048 
	C461.386841,208.598572 457.404785,212.994553 456.497650,217.679626 
	C455.027832,225.270950 452.769806,226.849365 445.185364,225.587051 
	C437.077393,224.237640 433.324524,227.859726 432.984741,236.023102 
	C432.714600,242.513397 436.502808,248.688766 433.845917,255.988266 
M531.318848,405.546326 
	C536.039429,405.016632 538.735107,401.893982 541.128052,398.175873 
	C545.755737,390.985657 550.693054,383.971741 550.829773,374.909546 
	C550.868530,372.341553 550.957947,369.751617 548.233521,368.423462 
	C545.524536,367.102905 544.731079,365.099457 545.424133,362.290344 
	C545.975708,360.054657 545.254700,358.436493 543.101074,357.404968 
	C537.332214,354.641724 531.510681,351.970612 525.867310,348.967377 
	C518.309692,344.945374 510.967896,340.141968 502.554810,347.161743 
	C501.750458,347.832855 500.270508,347.620941 499.235199,348.101257 
	C494.728333,350.191986 489.112946,349.772400 485.342468,353.113617 
	C479.641541,358.165558 472.386353,360.807434 466.820282,366.090729 
	C463.691040,369.061005 462.157990,371.681366 464.375977,375.531006 
	C468.267944,382.286011 472.305237,388.795227 479.050293,393.408173 
	C485.377502,397.735352 492.605988,400.473297 498.746002,404.829163 
	C504.722961,409.069397 510.115295,412.533875 518.035889,412.057953 
	C523.562012,411.725891 527.705139,410.617828 531.318848,405.546326 
M564.668030,483.929291 
	C562.455200,477.250122 559.034302,472.279236 551.556519,469.932648 
	C542.225281,467.004395 532.606995,472.303009 533.214905,481.895660 
	C533.880859,492.405884 532.658142,503.063538 535.964600,513.443909 
	C538.026672,519.917786 545.707825,524.018250 551.453796,520.491333 
	C556.313354,517.508484 561.900574,513.789429 560.437744,507.480682 
	C558.964600,501.127350 560.748840,496.121521 563.100159,490.828766 
	C563.976196,488.856964 565.169556,487.007172 564.668030,483.929291 
M600.372742,469.505157 
	C600.365967,477.492645 598.915039,485.610321 599.502930,493.380371 
	C600.599915,507.879669 600.335327,522.301880 600.186523,536.768738 
	C600.102295,544.957886 603.300964,548.149719 611.895935,548.661682 
	C613.072876,544.473694 611.754150,519.895142 610.079285,516.167236 
	C609.485474,514.845398 609.318909,512.886230 607.629639,512.625488 
	C601.752136,511.718109 603.689026,507.944275 604.820251,504.824371 
	C606.793396,499.382446 610.459839,494.618408 611.377563,488.351013 
	C608.352295,487.535095 608.043213,485.572723 609.445862,482.836029 
	C611.390991,479.041046 611.745544,474.921265 611.755859,470.690704 
	C611.768860,465.365753 612.097290,460.040375 612.347290,454.717926 
	C612.430481,452.947876 613.635864,450.677643 611.681824,449.647675 
	C608.323425,447.877594 604.800476,449.403900 601.504028,450.375946 
	C599.373230,451.004272 599.576355,453.111176 599.710999,455.038391 
	C600.024292,459.522003 600.164185,464.017731 600.372742,469.505157 
M658.799072,527.501160 
	C658.747070,523.026489 658.739990,518.550781 658.631165,514.077515 
	C658.507141,508.974976 654.424561,510.474121 651.617920,510.063538 
	C648.550720,509.614838 647.046204,510.992859 647.004456,514.253967 
	C646.936646,519.551086 646.476501,524.843262 646.410095,530.140320 
	C646.362488,533.939087 646.566650,537.752319 646.876526,541.541260 
	C647.258545,546.212830 650.746155,546.863037 654.435913,546.801086 
	C658.248474,546.737183 658.887573,544.029541 658.864685,540.930115 
	C658.833984,536.786377 658.818237,532.642456 658.799072,527.501160 
M503.074402,290.469788 
	C506.399414,291.016571 507.706879,286.019592 511.482849,287.505951 
	C513.675476,288.369049 515.959167,288.198883 516.654114,285.380188 
	C517.385742,282.412781 515.400635,281.116882 512.916931,280.525055 
	C508.981995,279.587402 504.902527,279.589600 501.022766,280.303619 
	C496.855255,281.070587 493.316132,280.536072 489.579193,278.559784 
	C485.771667,276.546204 481.612823,276.328369 477.656677,278.719086 
	C475.935211,279.759338 474.975830,281.149689 475.167999,283.217316 
	C475.369354,285.383698 477.200256,285.303558 478.648865,286.063873 
	C486.126495,289.988464 494.499023,288.895935 503.074402,290.469788 
M591.923706,495.815857 
	C586.407532,496.060730 583.940674,498.848083 585.180603,503.418213 
	C585.879761,505.995300 589.495483,506.059998 589.405884,505.422852 
	C588.881958,501.697662 593.927979,500.038544 591.923706,495.815857 
M510.960114,426.355530 
	C509.812469,422.196167 506.219604,421.646240 502.811646,420.069794 
	C501.787231,424.880798 505.157379,426.625061 507.137909,429.105499 
	C507.892365,430.050354 508.716675,431.046295 510.024811,430.526550 
	C511.665955,429.874420 511.165527,428.353271 510.960114,426.355530 
M884.922058,468.789673 
	C884.559265,464.033264 882.071960,465.015137 879.130188,466.552032 
	C879.438110,467.851044 879.672668,468.961121 879.966980,470.055084 
	C880.459106,471.884460 880.331787,474.664795 882.934814,474.437103 
	C885.693115,474.195892 884.641663,471.400360 884.922058,468.789673 
M551.864624,549.968201 
	C553.230652,549.928711 555.161194,550.947754 555.478149,548.652832 
	C555.735840,546.787170 554.073730,546.159668 552.600525,545.787231 
	C549.753967,545.067505 547.116394,545.419617 544.629639,547.677490 
	C546.472168,550.010010 548.932983,549.580017 551.864624,549.968201 
M529.092346,455.208252 
	C526.321472,456.577026 523.093323,457.238129 520.790161,460.212402 
	C524.724548,460.642822 527.883545,459.995026 530.575073,457.935638 
	C531.493652,457.232819 532.371521,455.967010 531.449280,454.632477 
	C531.310181,454.431091 530.281738,454.844269 529.092346,455.208252 
M529.655518,282.318817 
	C526.050842,279.721924 525.776062,279.760803 524.253357,283.126068 
	C526.049316,284.369019 527.631714,283.156769 529.655518,282.318817 
z"/>
<path fill="#000000" opacity="1.000000" stroke="none" 
	d="
M266.518860,547.445374 
	C259.884644,546.618896 254.432556,548.005371 249.609329,552.442932 
	C245.834259,555.916138 240.411469,555.986938 235.767624,557.674438 
	C223.316238,562.198730 211.391495,557.483643 199.088486,556.039673 
	C187.109085,554.633545 174.759933,552.064636 162.473206,554.664124 
	C158.078323,555.593933 153.680923,556.543762 149.342377,557.700745 
	C142.353424,559.564575 139.522766,558.388916 135.038147,550.701843 
	C155.350220,546.413147 175.721161,552.432617 195.837357,547.720764 
	C196.127762,546.959961 193.496140,546.850281 194.196060,545.606018 
	C198.402634,538.127563 191.557388,539.563965 188.646729,539.435120 
	C177.666656,538.948975 166.657944,539.096130 155.659775,539.037415 
	C148.376709,538.998474 148.010208,538.719177 147.899033,531.508972 
	C147.585983,511.208435 148.592911,490.962250 150.705643,470.694458 
	C151.161560,478.271057 153.192841,485.445129 155.514084,492.594055 
	C156.655228,496.108551 157.697128,499.619507 159.861984,502.612152 
	C163.629196,507.819763 162.970001,514.445801 165.744461,520.022522 
	C168.553497,525.668701 170.947006,527.247925 177.153564,525.905212 
	C186.393509,523.906250 189.037094,520.787231 190.086456,511.231140 
	C190.575928,506.773712 191.327850,502.330505 192.230438,497.936249 
	C193.858780,490.008545 198.267853,484.330841 205.637802,480.571533 
	C208.925964,478.894318 211.317886,475.539642 214.322449,473.212067 
	C223.602814,466.022614 235.153839,465.760681 244.917801,472.302917 
	C245.856171,472.931702 247.219849,473.935394 247.980560,473.656982 
	C253.212418,471.742218 257.205078,475.116394 261.655670,476.514008 
	C264.223877,477.320465 266.649261,477.511719 269.407043,476.567047 
	C283.345062,471.792450 297.568970,468.163177 312.329285,467.036530 
	C314.906189,466.839844 317.241364,467.228333 319.096954,469.394775 
	C323.041168,473.999847 329.916473,474.660583 335.105408,471.450226 
	C345.558411,464.982941 356.152466,462.516541 367.605408,469.686737 
	C370.149628,471.279572 373.010529,472.612732 375.643677,474.260406 
	C379.487885,476.665955 389.372467,475.369385 393.055786,472.202423 
	C396.014313,469.658539 406.385040,468.566162 409.342865,471.064819 
	C413.220093,474.340240 417.528748,477.315338 419.294891,482.617706 
	C420.391510,485.910065 422.219421,489.114014 424.915375,491.345764 
	C428.728882,494.502563 433.879181,493.391907 436.968567,489.010406 
	C440.383209,484.167572 443.787384,479.346924 448.630646,475.382751 
	C450.336243,477.727753 448.122406,479.465698 448.586487,481.810089 
	C451.995789,479.605225 455.652161,478.542267 459.679138,478.132965 
	C460.894928,481.589874 457.650085,484.047852 458.455780,487.125458 
	C459.934509,486.412262 460.506134,483.824890 462.747162,484.801270 
	C464.994904,485.780548 464.781738,487.952606 465.016266,489.940002 
	C465.441589,493.544098 461.966919,496.108429 462.198914,499.346802 
	C463.074371,511.566040 458.095734,522.082703 453.347900,532.755432 
	C452.284210,535.146423 451.581085,537.881958 451.483490,540.487732 
	C450.958740,554.496948 442.762482,564.663635 434.319366,574.541199 
	C431.004944,578.418701 425.514343,578.952454 420.645752,580.001465 
	C419.015198,580.352783 417.372559,580.410339 416.029419,581.615601 
	C414.827148,582.694458 413.566010,584.290955 411.746979,582.836670 
	C409.808594,581.286987 409.766815,579.051331 410.394043,576.882629 
	C410.926239,575.042664 412.535980,573.960754 413.916931,572.762024 
	C417.513733,569.639893 417.114227,567.060303 412.708313,565.182312 
	C411.156830,564.521057 409.560913,564.177979 407.835938,564.491882 
	C406.333221,564.765320 404.564758,564.966980 404.304077,562.881104 
	C404.047150,560.825256 405.723175,560.593018 407.298920,560.405396 
	C407.720306,560.355164 408.097412,559.933350 408.915009,559.416504 
	C405.977020,553.937195 404.598969,547.418579 397.137390,545.849792 
	C395.417572,545.488220 393.535858,545.237122 392.422546,546.587158 
	C387.259888,552.847717 379.357971,551.558289 372.772064,553.795288 
	C369.966431,554.748230 366.882935,555.148254 364.354340,556.728394 
	C359.307312,559.882385 353.702576,558.891479 348.296783,559.225464 
	C346.055542,559.364075 344.346527,557.646240 342.703491,556.210632 
	C339.906433,553.766479 336.805969,551.958069 333.141571,551.033447 
	C330.767700,550.434387 328.479553,549.260681 328.179138,553.810059 
	C324.593445,550.445862 324.480042,545.335510 319.560272,544.424866 
	C318.898773,544.302429 318.493408,540.737854 318.611450,538.806458 
	C319.227875,528.722778 312.872009,522.485168 306.118591,516.841370 
	C301.564758,513.035706 298.341217,515.074463 296.776123,520.532104 
	C294.369080,528.925659 294.842407,537.298645 295.297577,545.776489 
	C295.578705,551.013123 288.710846,555.065918 283.783997,554.923096 
	C276.813171,554.721191 272.639404,549.638306 266.518860,547.445374 
M349.377960,523.716614 
	C349.043732,525.773682 348.896606,528.367310 351.097748,528.882751 
	C354.163086,529.600464 357.785065,530.361389 360.573700,528.296204 
	C367.928192,522.849548 370.257050,509.517883 365.233093,501.778107 
	C363.361145,498.894287 361.126373,496.098297 357.623840,494.842285 
	C354.272095,493.640350 351.559631,495.149384 351.117828,498.652557 
	C350.184052,506.056519 346.395325,513.302368 349.839935,520.980957 
	C350.065735,521.484314 349.660492,522.270691 349.377960,523.716614 
M279.583008,514.848755 
	C278.153351,515.648804 278.239288,517.075562 278.293457,518.360413 
	C278.627838,526.292053 276.642700,534.176270 277.983765,542.146240 
	C278.582306,545.703369 281.041382,546.797180 283.882935,547.086853 
	C286.308075,547.334167 288.676117,546.328369 288.870056,543.391663 
	C289.446686,534.659790 289.474762,525.926025 288.628235,517.394836 
	C285.584991,516.434814 282.927185,515.596436 279.583008,514.848755 
M234.181702,507.376862 
	C229.200668,507.647614 224.211243,507.819305 219.242981,508.240570 
	C217.394821,508.397247 214.638519,508.221283 214.685913,510.946014 
	C214.728271,513.381714 216.961304,514.482300 219.258026,514.766663 
	C222.393494,515.154846 225.550827,515.635559 228.695999,515.616516 
	C234.186920,515.583374 239.868332,516.626587 245.386002,513.895935 
	C243.152100,508.990845 239.301224,507.865631 234.181702,507.376862 
M282.863037,490.759796 
	C281.019531,485.808838 284.844513,482.075806 286.270691,477.450348 
	C282.802765,477.237976 279.919006,477.061371 276.957703,476.880005 
	C279.459198,485.292847 276.784515,493.848877 278.733124,502.529449 
	C283.812714,499.717743 283.691376,495.737854 282.863037,490.759796 
M211.436371,480.917419 
	C210.159790,482.036743 209.002884,483.240326 209.499100,485.138245 
	C209.734802,486.039734 210.487900,486.529602 211.385162,486.333282 
	C213.044312,485.970245 213.920746,484.597778 214.158798,483.146332 
	C214.549240,480.765686 216.844406,480.105591 217.786194,478.064606 
	C215.863480,478.889191 213.940750,479.713776 211.436371,480.917419 
M344.818695,539.810364 
	C346.364777,540.732666 347.809509,542.132507 350.422607,541.025208 
	C347.100952,538.983765 344.293945,537.258606 341.043121,535.260742 
	C341.447266,537.819397 343.551880,537.983337 344.818695,539.810364 
z"/>
<path fill="#000000" opacity="1.000000" stroke="none" 
	d="
M135.155579,449.116150 
	C136.156403,446.820557 136.733261,444.611298 138.496994,443.277802 
	C140.342377,441.882538 142.581757,440.451416 144.706085,442.565369 
	C146.532501,444.382843 146.526169,446.798615 145.127289,448.955811 
	C142.731842,452.649872 138.968750,453.562653 134.914841,453.786804 
	C133.767838,452.214874 134.704987,450.846741 135.155579,449.116150 
z"/>
<path fill="#000000" opacity="1.000000" stroke="none" 
	d="
M406.824524,577.307373 
	C404.761780,578.134277 403.017761,578.077942 402.727722,575.873474 
	C402.477203,573.969543 404.273621,574.015503 405.564056,574.090942 
	C407.656830,574.213257 408.930054,574.930298 406.824524,577.307373 
z"/>
</svg>