<?xml version="1.0" encoding="UTF-8"?>
<svg xmlns="http://www.w3.org/2000/svg" xmlns:xlink="http://www.w3.org/1999/xlink" width="210px" height="158px" viewBox="250 200 210 158" version="1.1">
<g id="surface1">
<path style=" stroke:none;fill-rule:nonzero;fill:rgb(99.607843%,99.607843%,99.607843%);fill-opacity:1;" d="M 0 0 C 69.300781 0 138.601562 0 210 0 C 210 52.140625 210 104.28125 210 158 C 140.699219 158 71.398438 158 0 158 C 0 105.859375 0 53.71875 0 0 Z M 0 0 "/>
<path style=" stroke:none;fill-rule:nonzero;fill:rgb(0.784314%,0.784314%,0.784314%);fill-opacity:1;" d="M 98.390625 39.371094 C 98.507812 39.371094 98.625 39.371094 98.746094 39.371094 C 98.992188 39.371094 99.238281 39.367188 99.484375 39.367188 C 99.851562 39.367188 100.222656 39.363281 100.589844 39.359375 C 101.945312 39.355469 103.246094 39.421875 104.578125 39.671875 C 104.785156 39.710938 104.996094 39.746094 105.210938 39.78125 C 107.605469 40.171875 110.234375 41.210938 112.035156 42.871094 C 112.121094 42.945312 112.207031 43.015625 112.296875 43.089844 C 113.214844 43.871094 113.972656 44.808594 114.449219 45.925781 C 114.449219 45.992188 114.449219 46.0625 114.449219 46.136719 C 114.550781 46.128906 114.660156 46.125 114.765625 46.121094 C 115.21875 46.136719 115.582031 46.238281 116 46.398438 C 116.070312 46.429688 116.144531 46.453125 116.222656 46.488281 C 118.039062 47.21875 119.089844 48.703125 119.839844 50.460938 C 119.902344 50.632812 119.957031 50.808594 120.015625 50.980469 C 120.042969 51.074219 120.078125 51.164062 120.109375 51.257812 C 120.710938 53.363281 120.265625 55.6875 119.992188 57.808594 C 119.832031 59.085938 119.773438 60.332031 119.804688 61.621094 C 119.910156 61.617188 120.011719 61.613281 120.117188 61.609375 C 121.167969 61.570312 121.828125 61.714844 122.660156 62.355469 C 123.640625 63.277344 123.980469 64.671875 124.035156 65.972656 C 124.097656 68.628906 123.597656 71.074219 121.730469 73.0625 C 121.648438 73.144531 121.566406 73.226562 121.484375 73.3125 C 121.414062 73.386719 121.34375 73.460938 121.269531 73.535156 C 120.515625 74.265625 119.484375 74.917969 118.441406 75.101562 C 118.425781 75.171875 118.40625 75.238281 118.390625 75.308594 C 118.191406 76.089844 117.914062 76.8125 117.585938 77.542969 C 117.535156 77.660156 117.484375 77.773438 117.433594 77.894531 C 115.539062 82.09375 112.542969 85.804688 108.21875 87.605469 C 107.546875 87.847656 106.855469 88.011719 106.15625 88.164062 C 106.070312 88.183594 105.988281 88.199219 105.902344 88.222656 C 103.214844 88.707031 100.257812 87.878906 98.03125 86.359375 C 97.9375 86.296875 97.847656 86.230469 97.757812 86.164062 C 97.652344 86.089844 97.550781 86.019531 97.445312 85.945312 C 95.949219 84.847656 94.605469 83.480469 93.554688 81.949219 C 93.511719 81.882812 93.464844 81.820312 93.417969 81.753906 C 92.027344 79.726562 90.96875 77.539062 90.195312 75.207031 C 89.9375 75.066406 89.683594 74.941406 89.421875 74.820312 C 87.410156 73.851562 86.074219 72.453125 85.257812 70.363281 C 84.859375 69.140625 84.714844 68.054688 84.710938 66.777344 C 84.707031 66.644531 84.707031 66.511719 84.703125 66.375 C 84.695312 64.972656 84.902344 63.570312 85.851562 62.476562 C 86.613281 61.769531 87.375 61.570312 88.398438 61.59375 C 88.722656 61.621094 89.035156 61.664062 89.355469 61.726562 C 89.242188 61.1875 89.113281 60.65625 88.960938 60.125 C 88.257812 57.707031 87.988281 55.285156 87.863281 52.773438 C 87.769531 50.953125 87.601562 49.015625 86.308594 47.609375 C 86.097656 47.457031 85.933594 47.378906 85.679688 47.292969 C 85.933594 46.582031 86.871094 46.230469 87.507812 45.902344 C 89 45.242188 90.679688 45 92.292969 44.875 C 92.054688 44.488281 91.867188 44.1875 91.472656 43.957031 C 91.402344 43.914062 91.328125 43.875 91.253906 43.828125 C 90.945312 43.664062 90.628906 43.527344 90.300781 43.398438 C 92.121094 41.867188 94.535156 41.695312 96.808594 41.605469 C 96.15625 40.980469 95.496094 40.460938 94.738281 39.976562 C 94.660156 39.921875 94.582031 39.871094 94.5 39.816406 C 94.5 39.78125 94.5 39.746094 94.5 39.710938 C 94.699219 39.675781 94.902344 39.644531 95.101562 39.609375 C 95.21875 39.59375 95.328125 39.574219 95.445312 39.558594 C 96.421875 39.414062 97.402344 39.375 98.390625 39.371094 Z M 98.390625 39.371094 "/>
<path style=" stroke:none;fill-rule:nonzero;fill:rgb(99.607843%,99.607843%,99.607843%);fill-opacity:1;" d="M 88.726562 63.515625 C 89.65625 63.730469 90.117188 64.121094 90.628906 64.914062 C 91.019531 65.484375 91.480469 65.878906 92.125 66.117188 C 92.335938 66.214844 92.335938 66.214844 92.507812 66.359375 C 92.59375 66.660156 92.617188 66.953125 92.65625 67.265625 C 92.867188 68.503906 93.699219 69.617188 94.679688 70.367188 C 95.929688 71.210938 97.191406 71.40625 98.675781 71.140625 C 100.023438 70.769531 101.066406 69.992188 101.785156 68.800781 C 102.140625 68.097656 102.421875 67.320312 102.527344 66.535156 C 102.554688 66.398438 102.554688 66.398438 102.585938 66.253906 C 103.304688 65.78125 104.164062 65.753906 105 65.832031 C 105.886719 66.09375 105.886719 66.09375 106.15625 66.359375 C 106.183594 66.527344 106.210938 66.699219 106.234375 66.867188 C 106.496094 68.351562 107.238281 69.585938 108.464844 70.464844 C 109.269531 70.941406 110.019531 71.242188 110.964844 71.230469 C 111.042969 71.230469 111.117188 71.230469 111.1875 71.226562 C 112.453125 71.203125 113.660156 70.800781 114.597656 69.914062 C 115.382812 69.050781 115.96875 68.015625 116.097656 66.84375 C 116.152344 66.507812 116.191406 66.394531 116.464844 66.175781 C 116.648438 66.0625 116.835938 65.960938 117.027344 65.863281 C 117.59375 65.566406 117.925781 65.054688 118.292969 64.554688 C 118.703125 64.003906 119.144531 63.707031 119.804688 63.515625 C 120.484375 63.4375 121.019531 63.414062 121.589844 63.832031 C 122.191406 64.675781 122.257812 65.667969 122.257812 66.679688 C 122.257812 66.78125 122.257812 66.875 122.257812 66.972656 C 122.242188 67.898438 122.070312 68.742188 121.800781 69.628906 C 121.769531 69.726562 121.742188 69.824219 121.710938 69.925781 C 121.316406 71.074219 120.492188 72.023438 119.492188 72.679688 C 119.417969 72.730469 119.347656 72.777344 119.273438 72.828125 C 118.59375 73.257812 117.859375 73.382812 117.074219 73.523438 C 117.046875 73.660156 117.023438 73.789062 116.992188 73.929688 C 116.871094 74.476562 116.695312 74.988281 116.492188 75.511719 C 116.457031 75.605469 116.417969 75.703125 116.378906 75.800781 C 115.371094 78.371094 114.039062 80.671875 112.140625 82.6875 C 112.046875 82.789062 111.957031 82.886719 111.859375 82.992188 C 110.210938 84.753906 107.789062 86.265625 105.332031 86.390625 C 101.953125 86.492188 99.519531 85.46875 97.019531 83.214844 C 96.9375 83.140625 96.855469 83.066406 96.773438 82.992188 C 95.542969 81.824219 94.585938 80.371094 93.765625 78.894531 C 93.730469 78.832031 93.691406 78.769531 93.660156 78.707031 C 91.558594 75.039062 91.558594 75.039062 91.558594 73.523438 C 91.445312 73.515625 91.324219 73.507812 91.207031 73.496094 C 89.859375 73.316406 88.628906 72.453125 87.78125 71.417969 C 86.816406 70.09375 86.5 68.636719 86.5 67.03125 C 86.496094 66.910156 86.496094 66.796875 86.496094 66.671875 C 86.492188 65.621094 86.53125 64.609375 87.148438 63.726562 C 87.648438 63.394531 88.140625 63.449219 88.726562 63.515625 Z M 88.726562 63.515625 "/>
<path style=" stroke:none;fill-rule:nonzero;fill:rgb(99.215686%,99.215686%,99.215686%);fill-opacity:1;" d="M 113.085938 52.03125 C 113.386719 52.257812 113.660156 52.507812 113.925781 52.773438 C 114.015625 52.859375 114.015625 52.859375 114.105469 52.945312 C 114.757812 53.625 115.175781 54.472656 115.605469 55.300781 C 115.640625 55.371094 115.675781 55.441406 115.71875 55.515625 C 116.683594 57.414062 117.410156 59.371094 117.492188 61.511719 C 117.503906 61.664062 117.503906 61.664062 117.515625 61.820312 C 117.53125 62.148438 117.542969 62.472656 117.554688 62.796875 C 117.558594 62.898438 117.5625 63 117.570312 63.105469 C 117.578125 63.660156 117.519531 63.980469 117.148438 64.410156 C 116.898438 64.664062 116.636719 64.894531 116.339844 65.097656 C 116.269531 65.097656 116.203125 65.097656 116.132812 65.097656 C 116.117188 65.019531 116.097656 64.941406 116.082031 64.863281 C 115.757812 63.386719 115.027344 62.09375 113.734375 61.265625 C 112.449219 60.5625 111.1875 60.339844 109.757812 60.730469 C 108.285156 61.246094 107.390625 62.105469 106.71875 63.492188 C 106.488281 63.980469 106.308594 64.472656 106.15625 64.988281 C 106.078125 64.976562 106.003906 64.960938 105.925781 64.945312 C 104.75 64.722656 103.648438 64.695312 102.480469 64.988281 C 102.457031 64.90625 102.4375 64.820312 102.414062 64.734375 C 102.054688 63.457031 101.480469 62.109375 100.292969 61.398438 C 98.917969 60.636719 97.671875 60.289062 96.09375 60.738281 C 95.492188 60.945312 95.003906 61.230469 94.5 61.621094 C 94.335938 61.734375 94.335938 61.734375 94.171875 61.851562 C 93.425781 62.503906 93.042969 63.464844 92.71875 64.375 C 92.625 64.628906 92.527344 64.859375 92.398438 65.097656 C 91.359375 64.359375 91.359375 64.359375 91.140625 63.9375 C 91.089844 63.511719 91.117188 63.097656 91.140625 62.671875 C 91.144531 62.519531 91.148438 62.367188 91.148438 62.214844 C 91.207031 60.21875 91.398438 58.164062 92.292969 56.351562 C 92.332031 56.277344 92.363281 56.210938 92.398438 56.132812 C 93.113281 54.652344 93.933594 53.28125 95.472656 52.554688 C 96.421875 52.230469 97.542969 52.507812 98.503906 52.667969 C 102.160156 53.226562 105.660156 52.777344 109.230469 51.902344 C 110.496094 51.589844 111.921875 51.253906 113.085938 52.03125 Z M 113.085938 52.03125 "/>
<path style=" stroke:none;fill-rule:nonzero;fill:rgb(1.176471%,1.176471%,1.176471%);fill-opacity:1;" d="M 179.582031 95.726562 C 179.683594 95.730469 179.789062 95.730469 179.890625 95.730469 C 179.996094 95.730469 180.105469 95.734375 180.214844 95.734375 C 180.320312 95.734375 180.429688 95.738281 180.539062 95.738281 C 180.804688 95.742188 181.070312 95.742188 181.335938 95.746094 C 181.335938 96.371094 181.335938 97 181.335938 97.644531 C 180.394531 97.6875 180.394531 97.6875 180.101562 97.703125 C 180.027344 97.710938 179.949219 97.714844 179.871094 97.71875 C 179.75 97.722656 179.75 97.722656 179.632812 97.730469 C 179.445312 97.730469 179.445312 97.730469 179.339844 97.851562 C 179.253906 98.398438 179.214844 98.910156 179.507812 99.390625 C 179.65625 99.566406 179.808594 99.734375 179.960938 99.902344 C 180.816406 100.953125 180.925781 102.347656 180.808594 103.644531 C 180.542969 105.0625 179.871094 106.167969 178.710938 107.019531 C 177.179688 107.921875 175.46875 107.988281 173.742188 108.011719 C 173.617188 108.015625 173.496094 108.019531 173.367188 108.019531 C 173.203125 108.023438 173.203125 108.023438 173.03125 108.027344 C 172.683594 108.078125 172.484375 108.179688 172.199219 108.386719 C 172.050781 108.6875 172.0625 108.902344 172.09375 109.230469 C 172.289062 109.472656 172.445312 109.617188 172.726562 109.757812 C 172.875 109.769531 173.027344 109.773438 173.179688 109.773438 C 173.273438 109.777344 173.363281 109.777344 173.464844 109.777344 C 173.566406 109.777344 173.667969 109.777344 173.773438 109.78125 C 173.992188 109.78125 174.210938 109.785156 174.425781 109.789062 C 174.765625 109.792969 175.113281 109.796875 175.453125 109.796875 C 179.332031 109.835938 179.332031 109.835938 180.84375 111.121094 C 181.644531 111.996094 181.878906 112.878906 181.890625 114.035156 C 181.894531 114.136719 181.898438 114.238281 181.898438 114.34375 C 181.910156 115.050781 181.78125 115.5625 181.441406 116.183594 C 181.402344 116.25 181.367188 116.320312 181.324219 116.390625 C 180.746094 117.371094 179.546875 117.804688 178.5 118.082031 C 177.367188 118.324219 176.234375 118.332031 175.078125 118.328125 C 174.988281 118.328125 174.894531 118.328125 174.800781 118.328125 C 170.800781 118.320312 170.800781 118.320312 169.324219 117.015625 C 168.527344 116.183594 168.359375 115.378906 168.367188 114.257812 C 168.402344 113.289062 168.707031 112.695312 169.402344 112.027344 C 169.792969 111.707031 170.148438 111.5 170.625 111.335938 C 170.585938 111.28125 170.542969 111.234375 170.496094 111.179688 C 169.957031 110.480469 169.609375 109.871094 169.636719 108.964844 C 169.757812 108.230469 170.265625 107.761719 170.835938 107.332031 C 170.972656 107.230469 171.113281 107.125 171.257812 107.019531 C 171.1875 106.957031 171.117188 106.902344 171.042969 106.839844 C 170.007812 105.941406 169.367188 105 169.234375 103.601562 C 169.136719 101.910156 169.390625 100.671875 170.472656 99.339844 C 171.429688 98.292969 172.855469 97.808594 174.242188 97.738281 C 176.472656 97.671875 176.472656 97.671875 177.449219 98.066406 C 177.445312 98.003906 177.441406 97.945312 177.433594 97.882812 C 177.410156 97.28125 177.464844 96.957031 177.867188 96.488281 C 178.382812 95.976562 178.855469 95.71875 179.582031 95.726562 Z M 179.582031 95.726562 "/>
<path style=" stroke:none;fill-rule:nonzero;fill:rgb(1.176471%,1.176471%,1.176471%);fill-opacity:1;" d="M 77.183594 99.285156 C 78.523438 100.382812 79.386719 102.148438 79.589844 103.859375 C 79.761719 106.433594 79.5 108.886719 77.75 110.910156 C 76.390625 112.355469 74.777344 112.992188 72.820312 113.054688 C 70.894531 113.089844 69.179688 112.464844 67.78125 111.109375 C 66.105469 109.238281 65.613281 106.929688 65.710938 104.472656 C 65.839844 102.515625 66.75 100.660156 68.164062 99.316406 C 70.800781 97.070312 74.496094 97.234375 77.183594 99.285156 Z M 77.183594 99.285156 "/>
<path style=" stroke:none;fill-rule:nonzero;fill:rgb(1.176471%,1.176471%,1.176471%);fill-opacity:1;" d="M 147.632812 98.695312 C 148.675781 99.515625 149.125 100.785156 149.308594 102.066406 C 149.367188 102.742188 149.363281 103.414062 149.363281 104.089844 C 149.367188 104.285156 149.367188 104.472656 149.371094 104.667969 C 149.375 105.164062 149.378906 105.667969 149.378906 106.164062 C 149.382812 106.679688 149.386719 107.1875 149.390625 107.703125 C 149.402344 108.703125 149.40625 109.703125 149.414062 110.707031 C 149.867188 110.738281 150.3125 110.773438 150.78125 110.808594 C 150.78125 111.433594 150.78125 112.0625 150.78125 112.707031 C 150.464844 112.71875 150.148438 112.726562 149.835938 112.730469 C 149.75 112.734375 149.65625 112.738281 149.566406 112.742188 C 148.875 112.757812 148.300781 112.625 147.785156 112.132812 C 147.351562 111.632812 147.203125 111.242188 147.105469 110.601562 C 147.046875 110.671875 146.984375 110.734375 146.925781 110.808594 C 145.726562 112.167969 144.570312 112.925781 142.726562 113.046875 C 141.382812 113.101562 140.191406 112.839844 139.125 111.96875 C 139.058594 111.917969 138.992188 111.863281 138.929688 111.808594 C 138.144531 111.109375 137.710938 110.121094 137.628906 109.089844 C 137.589844 107.78125 137.921875 106.738281 138.808594 105.753906 C 138.859375 105.699219 138.902344 105.644531 138.953125 105.59375 C 139.351562 105.207031 139.832031 104.945312 140.320312 104.6875 C 140.414062 104.636719 140.414062 104.636719 140.507812 104.585938 C 141.984375 103.84375 143.558594 103.796875 145.171875 103.832031 C 145.359375 103.835938 145.546875 103.835938 145.738281 103.839844 C 146.191406 103.84375 146.648438 103.847656 147.105469 103.859375 C 147.09375 103.554688 147.078125 103.253906 147.066406 102.949219 C 147.0625 102.867188 147.058594 102.78125 147.054688 102.695312 C 147.011719 101.820312 146.832031 100.894531 146.160156 100.277344 C 145.175781 99.679688 144.046875 99.597656 142.921875 99.808594 C 142.695312 99.878906 142.488281 99.960938 142.273438 100.066406 C 142.164062 100.121094 142.054688 100.171875 141.9375 100.230469 C 141.171875 100.898438 141.003906 101.597656 140.804688 102.59375 C 139.972656 102.421875 139.140625 102.246094 138.285156 102.066406 C 138.417969 100.835938 138.808594 99.921875 139.78125 99.136719 C 141.964844 97.542969 145.335938 96.980469 147.632812 98.695312 Z M 147.632812 98.695312 "/>
<path style=" stroke:none;fill-rule:nonzero;fill:rgb(0.784314%,0.784314%,0.784314%);fill-opacity:1;" d="M 50.875 98.804688 C 52.554688 100.148438 53.265625 101.835938 53.613281 103.921875 C 53.671875 104.5625 53.65625 105.214844 53.65625 105.859375 C 50.085938 105.859375 46.515625 105.859375 42.839844 105.859375 C 43.011719 107.4375 43.347656 109.207031 44.625 110.28125 C 45.777344 110.984375 46.847656 111.1875 48.183594 110.972656 C 49.132812 110.71875 49.957031 110.15625 50.507812 109.335938 C 50.695312 108.992188 50.867188 108.640625 51.03125 108.285156 C 51.539062 108.351562 52.003906 108.488281 52.488281 108.65625 C 52.558594 108.683594 52.632812 108.707031 52.703125 108.730469 C 52.882812 108.792969 53.058594 108.855469 53.234375 108.914062 C 53.058594 110.144531 52.125 111.125 51.1875 111.859375 C 49.613281 112.945312 47.632812 113.246094 45.757812 112.992188 C 44.132812 112.6875 42.789062 111.820312 41.773438 110.523438 C 40.75 108.980469 40.367188 107.289062 40.378906 105.449219 C 40.378906 105.234375 40.375 105.019531 40.371094 104.808594 C 40.363281 102.875 40.984375 101.066406 42.253906 99.597656 C 44.464844 97.410156 48.300781 96.972656 50.875 98.804688 Z M 50.875 98.804688 "/>
<path style=" stroke:none;fill-rule:nonzero;fill:rgb(1.176471%,1.176471%,1.176471%);fill-opacity:1;" d="M 111.84375 92.871094 C 111.972656 92.871094 112.105469 92.867188 112.234375 92.867188 C 114.414062 92.867188 116.394531 93.578125 117.984375 95.078125 C 118.945312 96.054688 119.910156 97.492188 119.910156 98.90625 C 119.5 99.152344 119.050781 99.234375 118.59375 99.34375 C 118.511719 99.363281 118.429688 99.378906 118.347656 99.398438 C 118.023438 99.472656 117.722656 99.539062 117.390625 99.539062 C 117.355469 99.433594 117.316406 99.320312 117.28125 99.210938 C 116.652344 97.4375 115.902344 96.214844 114.1875 95.375 C 112.910156 94.835938 111.179688 94.761719 109.847656 95.175781 C 108.222656 95.859375 106.953125 97.070312 106.273438 98.714844 C 105.214844 101.484375 105.238281 104.425781 106.300781 107.203125 C 106.566406 107.789062 106.917969 108.300781 107.308594 108.808594 C 107.378906 108.90625 107.378906 108.90625 107.445312 109.003906 C 108.234375 110.066406 109.609375 110.707031 110.882812 110.917969 C 112.609375 111.074219 114.203125 110.714844 115.582031 109.632812 C 116.585938 108.707031 117.109375 107.5 117.390625 106.175781 C 118.328125 106.308594 119.210938 106.53125 120.117188 106.804688 C 119.773438 108.832031 118.484375 110.542969 116.839844 111.714844 C 114.738281 113.074219 112.125 113.316406 109.722656 112.808594 C 108.003906 112.40625 106.652344 111.515625 105.417969 110.28125 C 105.347656 110.214844 105.277344 110.148438 105.210938 110.074219 C 103.308594 108.066406 102.722656 105.117188 102.753906 102.445312 C 102.777344 101.550781 102.890625 100.722656 103.109375 99.855469 C 103.136719 99.734375 103.164062 99.613281 103.191406 99.492188 C 103.757812 97.183594 105.230469 95.21875 107.238281 93.976562 C 107.929688 93.566406 108.625 93.300781 109.410156 93.113281 C 109.476562 93.097656 109.539062 93.074219 109.605469 93.058594 C 110.347656 92.867188 111.082031 92.871094 111.84375 92.871094 Z M 111.84375 92.871094 "/>
<path style=" stroke:none;fill-rule:nonzero;fill:rgb(0%,0%,0%);fill-opacity:1;" d="M 122.957031 92.375 C 123.683594 92.375 124.410156 92.375 125.160156 92.375 C 125.210938 96.234375 125.210938 96.234375 125.265625 100.171875 C 125.507812 99.859375 125.75 99.546875 126 99.222656 C 127.210938 98.042969 128.554688 97.699219 130.199219 97.703125 C 131.4375 97.730469 132.453125 98.136719 133.351562 99.011719 C 134.894531 100.671875 134.851562 102.628906 134.839844 104.765625 C 134.839844 104.996094 134.839844 105.226562 134.839844 105.453125 C 134.839844 106.054688 134.835938 106.652344 134.835938 107.253906 C 134.832031 107.871094 134.832031 108.484375 134.832031 109.097656 C 134.828125 110.300781 134.824219 111.503906 134.820312 112.707031 C 134.09375 112.707031 133.367188 112.707031 132.617188 112.707031 C 132.617188 112.40625 132.613281 112.109375 132.613281 111.800781 C 132.609375 110.808594 132.601562 109.816406 132.59375 108.828125 C 132.589844 108.226562 132.585938 107.625 132.585938 107.023438 C 132.582031 106.445312 132.582031 105.863281 132.574219 105.285156 C 132.574219 105.066406 132.574219 104.84375 132.574219 104.621094 C 132.59375 102.394531 132.59375 102.394531 131.640625 100.441406 C 130.792969 99.671875 129.714844 99.6875 128.640625 99.734375 C 127.777344 99.804688 127.019531 100.304688 126.417969 100.910156 C 125.53125 102.050781 125.253906 103.433594 125.246094 104.851562 C 125.242188 104.980469 125.242188 104.980469 125.242188 105.105469 C 125.238281 105.386719 125.234375 105.667969 125.234375 105.949219 C 125.230469 106.144531 125.230469 106.335938 125.226562 106.535156 C 125.21875 107.046875 125.210938 107.554688 125.207031 108.066406 C 125.203125 108.589844 125.195312 109.109375 125.191406 109.632812 C 125.179688 110.65625 125.171875 111.683594 125.160156 112.707031 C 124.433594 112.707031 123.703125 112.707031 122.957031 112.707031 C 122.957031 106 122.957031 99.289062 122.957031 92.375 Z M 122.957031 92.375 "/>
<path style=" stroke:none;fill-rule:nonzero;fill:rgb(99.215686%,99.215686%,99.215686%);fill-opacity:1;" d="M 75.027344 100.230469 C 76.238281 101.117188 76.847656 102.410156 77.121094 103.867188 C 77.382812 105.910156 77.136719 108.101562 75.882812 109.796875 C 75.015625 110.644531 73.992188 111.140625 72.777344 111.179688 C 71.59375 111.140625 70.570312 110.816406 69.71875 109.964844 C 68.296875 108.367188 68.179688 106.433594 68.25 104.386719 C 68.355469 102.855469 68.898438 101.554688 70.023438 100.515625 C 71.40625 99.347656 73.492188 99.289062 75.027344 100.230469 Z M 75.027344 100.230469 "/>
<path style=" stroke:none;fill-rule:nonzero;fill:rgb(1.176471%,1.176471%,1.176471%);fill-opacity:1;" d="M 80.851562 98.066406 C 81.683594 98.066406 82.515625 98.066406 83.367188 98.066406 C 84.097656 100.097656 84.808594 102.136719 85.507812 104.179688 C 85.703125 104.757812 85.898438 105.332031 86.097656 105.90625 C 86.167969 106.113281 86.238281 106.324219 86.3125 106.535156 C 86.765625 107.855469 87.21875 109.175781 87.675781 110.492188 C 87.984375 109.75 88.257812 108.996094 88.515625 108.230469 C 88.558594 108.113281 88.597656 108 88.632812 107.878906 C 88.722656 107.636719 88.808594 107.390625 88.890625 107.144531 C 89.109375 106.492188 89.335938 105.847656 89.558594 105.199219 C 89.601562 105.066406 89.648438 104.9375 89.691406 104.800781 C 90.085938 103.660156 90.480469 102.519531 90.875 101.375 C 90.941406 101.1875 91.007812 100.992188 91.074219 100.804688 C 91.164062 100.539062 91.253906 100.273438 91.351562 100.007812 C 91.375 99.933594 91.402344 99.855469 91.429688 99.777344 C 91.628906 99.199219 91.859375 98.640625 92.085938 98.066406 C 92.917969 98.066406 93.75 98.066406 94.605469 98.066406 C 94.101562 99.527344 93.574219 100.976562 93.015625 102.417969 C 92.890625 102.742188 92.769531 103.066406 92.640625 103.390625 C 92.554688 103.617188 92.46875 103.847656 92.382812 104.074219 C 91.929688 105.253906 91.476562 106.441406 91.03125 107.625 C 90.75 108.347656 90.476562 109.078125 90.199219 109.804688 C 89.910156 110.5625 89.617188 111.324219 89.332031 112.082031 C 89.144531 112.585938 88.949219 113.09375 88.757812 113.597656 C 88.667969 113.84375 88.578125 114.082031 88.488281 114.320312 C 88.359375 114.652344 88.234375 114.984375 88.109375 115.316406 C 88.074219 115.414062 88.035156 115.507812 88 115.613281 C 87.660156 116.496094 87.289062 117.308594 86.414062 117.761719 C 85.960938 117.941406 85.585938 117.996094 85.101562 117.992188 C 84.914062 117.992188 84.914062 117.992188 84.722656 117.988281 C 84.589844 117.988281 84.464844 117.988281 84.328125 117.984375 C 84.195312 117.984375 84.0625 117.984375 83.925781 117.984375 C 83.601562 117.980469 83.273438 117.976562 82.949219 117.972656 C 82.949219 117.347656 82.949219 116.722656 82.949219 116.078125 C 83.78125 116.042969 84.617188 116.007812 85.46875 115.972656 C 85.839844 115.132812 85.839844 115.132812 86.1875 114.285156 C 86.230469 114.167969 86.277344 114.050781 86.324219 113.933594 C 86.515625 113.132812 86.277344 112.421875 85.980469 111.683594 C 85.929688 111.550781 85.929688 111.550781 85.875 111.414062 C 85.800781 111.226562 85.726562 111.039062 85.652344 110.851562 C 85.492188 110.441406 85.332031 110.03125 85.167969 109.621094 C 85.085938 109.402344 85 109.183594 84.914062 108.96875 C 84.441406 107.757812 83.980469 106.539062 83.519531 105.320312 C 83.355469 104.878906 83.1875 104.441406 83.023438 104.003906 C 82.984375 103.894531 82.941406 103.785156 82.902344 103.675781 C 82.609375 102.914062 82.324219 102.152344 82.03125 101.390625 C 81.949219 101.183594 81.871094 100.976562 81.792969 100.765625 C 81.679688 100.472656 81.566406 100.179688 81.453125 99.882812 C 81.351562 99.613281 81.246094 99.347656 81.144531 99.078125 C 81.117188 99 81.085938 98.921875 81.054688 98.839844 C 80.851562 98.300781 80.851562 98.300781 80.851562 98.066406 Z M 80.851562 98.066406 "/>
<path style=" stroke:none;fill-rule:nonzero;fill:rgb(0.392157%,0.392157%,0.392157%);fill-opacity:1;" d="M 163.800781 98.804688 C 164.800781 99.691406 165.398438 100.988281 165.5 102.324219 C 165.507812 102.601562 165.507812 102.875 165.503906 103.152344 C 165.503906 103.253906 165.503906 103.359375 165.503906 103.464844 C 165.503906 103.808594 165.503906 104.148438 165.503906 104.488281 C 165.503906 104.722656 165.5 104.964844 165.5 105.199219 C 165.5 105.824219 165.5 106.445312 165.492188 107.066406 C 165.492188 107.699219 165.488281 108.335938 165.488281 108.96875 C 165.488281 110.21875 165.484375 111.460938 165.480469 112.707031 C 164.75 112.707031 164.027344 112.707031 163.273438 112.707031 C 163.273438 112.40625 163.273438 112.109375 163.269531 111.800781 C 163.265625 110.804688 163.261719 109.8125 163.253906 108.824219 C 163.25 108.222656 163.246094 107.621094 163.246094 107.019531 C 163.246094 106.4375 163.242188 105.855469 163.238281 105.277344 C 163.234375 105.054688 163.234375 104.832031 163.234375 104.613281 C 163.253906 102.34375 163.253906 102.34375 162.226562 100.382812 C 161.28125 99.71875 160.300781 99.632812 159.179688 99.75 C 158.125 100.011719 157.328125 100.59375 156.738281 101.507812 C 156.152344 102.558594 155.914062 103.640625 155.90625 104.839844 C 155.898438 104.96875 155.898438 104.96875 155.898438 105.097656 C 155.894531 105.378906 155.894531 105.660156 155.890625 105.9375 C 155.886719 106.132812 155.886719 106.328125 155.882812 106.523438 C 155.878906 107.035156 155.875 107.546875 155.867188 108.0625 C 155.863281 108.582031 155.859375 109.105469 155.851562 109.628906 C 155.84375 110.652344 155.832031 111.683594 155.820312 112.707031 C 155.09375 112.707031 154.367188 112.707031 153.617188 112.707031 C 153.617188 107.875 153.617188 103.042969 153.617188 98.066406 C 154.308594 98.066406 155.003906 98.066406 155.714844 98.066406 C 155.75 98.796875 155.785156 99.523438 155.820312 100.277344 C 155.925781 100.136719 156.027344 99.996094 156.132812 99.847656 C 156.902344 98.871094 157.945312 97.996094 159.207031 97.773438 C 160.894531 97.621094 162.417969 97.710938 163.800781 98.804688 Z M 163.800781 98.804688 "/>
<path style=" stroke:none;fill-rule:nonzero;fill:rgb(0.784314%,0.784314%,0.784314%);fill-opacity:1;" d="M 27.71875 93.113281 C 28.519531 93.113281 29.3125 93.113281 30.132812 93.113281 C 30.132812 98.917969 30.132812 104.722656 30.132812 110.707031 C 33.359375 110.707031 36.582031 110.707031 39.898438 110.707031 C 39.898438 111.367188 39.898438 112.027344 39.898438 112.707031 C 35.878906 112.707031 31.859375 112.707031 27.71875 112.707031 C 27.71875 106.242188 27.71875 99.773438 27.71875 93.113281 Z M 27.71875 93.113281 "/>
<path style=" stroke:none;fill-rule:nonzero;fill:rgb(99.215686%,99.215686%,99.215686%);fill-opacity:1;" d="M 100.046875 62.476562 C 100.808594 63.113281 101.425781 64.117188 101.566406 65.121094 C 101.582031 65.367188 101.585938 65.609375 101.585938 65.859375 C 101.585938 65.949219 101.585938 66.035156 101.585938 66.125 C 101.554688 67.226562 101.140625 68.191406 100.382812 68.992188 C 99.460938 69.855469 98.542969 70.226562 97.285156 70.222656 C 96.199219 70.171875 95.207031 69.636719 94.476562 68.828125 C 93.640625 67.65625 93.339844 66.523438 93.449219 65.097656 C 93.726562 63.871094 94.441406 62.878906 95.445312 62.148438 C 96.984375 61.277344 98.621094 61.472656 100.046875 62.476562 Z M 100.046875 62.476562 "/>
<path style=" stroke:none;fill-rule:nonzero;fill:rgb(99.215686%,99.215686%,99.215686%);fill-opacity:1;" d="M 113.648438 62.429688 C 114.121094 62.820312 114.453125 63.304688 114.765625 63.832031 C 114.8125 63.90625 114.855469 63.984375 114.90625 64.066406 C 115.363281 65.003906 115.328125 66.179688 115.09375 67.175781 C 114.664062 68.382812 113.972656 69.1875 112.875 69.835938 C 112.8125 69.875 112.746094 69.910156 112.683594 69.953125 C 111.890625 70.335938 110.742188 70.289062 109.90625 70.054688 C 109.617188 69.929688 109.359375 69.792969 109.09375 69.628906 C 109.019531 69.578125 108.941406 69.53125 108.863281 69.488281 C 107.84375 68.804688 107.335938 67.75 107.101562 66.570312 C 106.957031 65.21875 107.296875 64.035156 108.125 62.960938 C 109.617188 61.324219 111.863281 61.210938 113.648438 62.429688 Z M 113.648438 62.429688 "/>
<path style=" stroke:none;fill-rule:nonzero;fill:rgb(1.568628%,1.568628%,1.568628%);fill-opacity:1;" d="M 63.261719 97.722656 C 63.339844 97.722656 63.417969 97.722656 63.496094 97.722656 C 63.964844 97.722656 64.339844 97.78125 64.785156 97.960938 C 64.730469 98.699219 64.675781 99.4375 64.574219 100.171875 C 64.484375 100.152344 64.394531 100.136719 64.300781 100.121094 C 63.101562 99.957031 61.886719 99.953125 60.875 100.671875 C 59.738281 101.609375 59.285156 102.730469 59.117188 104.171875 C 59.074219 104.835938 59.074219 105.503906 59.070312 106.164062 C 59.070312 106.355469 59.066406 106.542969 59.066406 106.730469 C 59.058594 107.226562 59.054688 107.722656 59.050781 108.21875 C 59.046875 108.722656 59.042969 109.230469 59.039062 109.734375 C 59.027344 110.726562 59.015625 111.714844 59.007812 112.707031 C 58.246094 112.707031 57.484375 112.707031 56.699219 112.707031 C 56.699219 107.875 56.699219 103.042969 56.699219 98.066406 C 57.425781 98.066406 58.15625 98.066406 58.90625 98.066406 C 58.9375 98.761719 58.972656 99.457031 59.007812 100.171875 C 59.113281 100.03125 59.214844 99.890625 59.316406 99.746094 C 60.277344 98.515625 61.699219 97.703125 63.261719 97.722656 Z M 63.261719 97.722656 "/>
<path style=" stroke:none;fill-rule:nonzero;fill:rgb(98.823529%,98.823529%,98.823529%);fill-opacity:1;" d="M 177.164062 99.878906 C 177.792969 100.304688 178.238281 100.929688 178.449219 101.667969 C 178.652344 102.867188 178.601562 104.078125 177.945312 105.128906 C 177.460938 105.757812 176.761719 106.171875 175.980469 106.28125 C 174.667969 106.367188 173.503906 106.398438 172.421875 105.570312 C 172.0625 105.230469 171.851562 104.847656 171.675781 104.386719 C 171.636719 104.289062 171.601562 104.195312 171.558594 104.097656 C 171.292969 103.140625 171.355469 101.964844 171.746094 101.054688 C 172.207031 100.226562 172.804688 99.726562 173.695312 99.425781 C 174.886719 99.132812 176.097656 99.28125 177.164062 99.878906 Z M 177.164062 99.878906 "/>
<path style=" stroke:none;fill-rule:nonzero;fill:rgb(98.431373%,98.431373%,98.431373%);fill-opacity:1;" d="M 174.855469 111.703125 C 175.132812 111.707031 175.410156 111.703125 175.691406 111.703125 C 176.863281 111.699219 178.121094 111.703125 179.046875 112.535156 C 179.53125 113.109375 179.601562 113.683594 179.589844 114.417969 C 179.507812 115 179.191406 115.367188 178.808594 115.789062 C 177.71875 116.4375 176.542969 116.519531 175.308594 116.523438 C 175.082031 116.523438 174.859375 116.527344 174.636719 116.535156 C 173.359375 116.542969 172.136719 116.433594 171.148438 115.550781 C 170.679688 114.984375 170.671875 114.488281 170.699219 113.765625 C 170.757812 113.195312 170.960938 112.871094 171.355469 112.484375 C 172.382812 111.683594 173.609375 111.691406 174.855469 111.703125 Z M 174.855469 111.703125 "/>
<path style=" stroke:none;fill-rule:nonzero;fill:rgb(99.215686%,99.215686%,99.215686%);fill-opacity:1;" d="M 144.480469 105.636719 C 144.554688 105.636719 144.632812 105.636719 144.710938 105.636719 C 144.949219 105.640625 145.1875 105.640625 145.425781 105.640625 C 145.589844 105.640625 145.753906 105.640625 145.914062 105.644531 C 146.3125 105.644531 146.707031 105.644531 147.105469 105.648438 C 147.140625 107.316406 146.945312 108.78125 145.769531 110.0625 C 144.847656 110.910156 143.738281 111.183594 142.511719 111.160156 C 141.757812 111.089844 141.210938 110.851562 140.699219 110.292969 C 140.191406 109.671875 140.121094 109.097656 140.132812 108.3125 C 140.222656 107.511719 140.679688 106.945312 141.289062 106.449219 C 142.28125 105.785156 143.3125 105.628906 144.480469 105.636719 Z M 144.480469 105.636719 "/>
<path style=" stroke:none;fill-rule:nonzero;fill:rgb(99.215686%,99.215686%,99.215686%);fill-opacity:1;" d="M 49.042969 100.132812 C 50.039062 100.941406 50.664062 101.960938 50.925781 103.226562 C 50.925781 103.507812 50.925781 103.78125 50.925781 104.070312 C 48.292969 104.070312 45.660156 104.070312 42.945312 104.070312 C 43.097656 102.691406 43.414062 101.417969 44.519531 100.488281 C 45.886719 99.453125 47.519531 99.320312 49.042969 100.132812 Z M 49.042969 100.132812 "/>
</g>
</svg>
