<svg id="e80hgDUm73p1" xmlns="http://www.w3.org/2000/svg" xmlns:xlink="http://www.w3.org/1999/xlink" viewBox="0 0 210 155" shape-rendering="geometricPrecision" text-rendering="geometricPrecision" project-id="4dbb6838f6f440678b06ce12d5255232" export-id="b075390abd2c4b28a1506452321faf90" cached="false"><path d="M0.115057,9L1.56392,0.272727h2.10938L2.5142,7.28693h3.63069L5.85511,9h-5.740053ZM9.9897,9.12358c-.68466,0-1.25284-.13494-1.70454-.40483-.44887-.27273-.76421-.66051-.94603-1.16335-.18181-.50568-.21449-1.10654-.09801-1.80256.11364-.67614.34517-1.26704.6946-1.77273.35228-.50852.79546-.90341,1.32955-1.18466.53409-.28409,1.12923-.42613,1.78553-.42613.4659,0,.8792.07244,1.24.21733s.6591.36079.8949.64773c.2358.28409.3963.63352.4816,1.04829s.0823.89063-.0086,1.42756l-.0809.51988h-5.68469l.19176-1.21022h3.75003c.0341-.22159.0156-.41904-.0554-.59233s-.1861-.30824-.3452-.40483c-.1562-.09943-.348-.14915-.5753-.14915-.2301,0-.446.05398-.6477.16193-.1989.10511-.36791.24716-.50711.42614s-.23011.38068-.27273.60511L9.20561,6.30682c-.04545.27557-.03267.51136.03835.70738s.19318.3466.36648.45171c.1733.10227.39626.15341.66906.15341.1818,0,.3522-.02415.5113-.07244.1591-.05114.3012-.12643.4262-.22586.1278-.10227.2315-.22585.3111-.37074l1.9005.0554c-.1534.42898-.3906.80256-.7116,1.12074-.321.31534-.7131.56108-1.1762.73722-.4602.17329-.9772.25994-1.5511.25994ZM14.1776,9l1.0909-6.54545h2.0241l-.2003,1.19318h.0682c.1904-.43182.4389-.75284.7457-.96307.3069-.21307.6393-.3196.9972-.3196.0966,0,.1932.0071.2898.0213.0994.01137.1932.02841.2812.05114l-.3068,1.81534c-.0966-.03693-.223-.06392-.3792-.08096-.1563-.01989-.2983-.02983-.4262-.02983-.2471,0-.4773.05539-.6903.16619-.2103.10795-.3892.25994-.537.45596-.1448.19319-.24.42046-.2855.68182L16.2614,9h-2.0838Zm7.762.12358c-.6903,0-1.2599-.14205-1.7088-.42614-.446-.28409-.7599-.68039-.9417-1.18892C19.1072,7,19.0717,6.40909,19.1825,5.7358c.1108-.67046.3395-1.25853.6861-1.76421s.7898-.89915,1.3296-1.1804s1.1519-.42187,1.8366-.42187c.6875,0,1.2543.14204,1.7003.42613.4488.2841.7642.6804.946,1.18893.1847.50852.2216,1.10085.1108,1.77698-.1108.67046-.3409,1.25853-.6903,1.76421-.3495.50284-.7927.89488-1.3296,1.17613s-1.1477.42188-1.8324.42188Zm.2344-1.57244c.2557,0,.4844-.07671.6861-.23012.2045-.15341.3764-.3679.5156-.64346s.2386-.59517.2983-.95881c.0597-.35795.0653-.67187.0171-.94176-.0455-.27273-.1421-.48438-.2898-.63494-.1477-.15341-.348-.23012-.6009-.23012-.2557,0-.4858.07813-.6903.23438-.2046.15341-.3764.36789-.5156.64346-.1364.27273-.2344.59233-.2941.95881-.0596.35795-.0667.67187-.0213.94176s.1435.48154.2941.63494c.1505.15057.3508.22586.6008.22586Zm4.8068,3.90336c-.25,0-.4829-.0198-.6988-.0596-.2131-.0369-.3949-.0867-.5455-.1492l.7159-1.51275c.1904.06819.3651.10654.5242.11506.1619.01137.3068-.01562.4346-.08096.1307-.0625.2443-.17472.3409-.33665l.1193-.20029L26.674,2.45455h2.1051l.4262,4.67471h.0681l2.0029-4.67471h2.2713l-3.652,7.17187c-.1847.35796-.4077.67468-.669.95028-.2614.2756-.5767.4901-.9461.6435-.3664.1562-.7997.2343-1.2997.2343ZM44.6719,3.43466h-2.1051c.0113-.22159-.01-.41904-.064-.59233-.0539-.17614-.1392-.32671-.2556-.45171-.1165-.12784-.2614-.22443-.4347-.28977s-.375-.09801-.6051-.09801c-.4404,0-.8395.10938-1.1975.32813s-.6576.53409-.8991.94602-.4105.90625-.5071,1.48295c-.0881.55682-.0867,1.02131.0043,1.39347.0937.37216.267.65199.5198.83949.2529.18466.5739.27699.9631.27699.2529,0,.4872-.02983.7031-.08949.2188-.0625.4162-.15199.5924-.26847.1761-.11648.3281-.2571.4559-.42187.1307-.16762.2316-.3537.3026-.55824h2.1221c-.1051.38352-.2784.76562-.5198,1.1463-.2387.37785-.5398.72018-.9034,1.02699-.3637.30682-.7856.55256-1.2657.73722s-1.0142.27699-1.6022.27699c-.804,0-1.4972-.1804-2.0796-.5412-.5795-.36079-.9986-.88352-1.2571-1.56818-.2557-.6875-.304-1.51988-.1449-2.49716.1563-.94602.4645-1.74289.9247-2.39062.4631-.64773,1.0256-1.137785,1.6875-1.470171.6648-.332387,1.3736-.49858,2.1265-.49858.5454,0,1.0355.073864,1.4701.221591.4375.144886.8083.357954,1.1122.6392.304.27841.5299.62074.6776,1.02699.1506.40625.2102.87074.179,1.39347Zm3.0096,1.83239L47.0593,9h-2.0838l1.4489-8.727273h2.0156L47.886,3.65625h.0725c.2102-.40341.5028-.71875.8778-.94602s.8097-.34091,1.304-.34091c.4545,0,.8352.10227,1.142.30682.3068.2017.5242.48721.652.85653s.1506.80114.0682,1.29545L51.3036,9h-2.0838l.6307-3.76278c.0568-.36364.0099-.64773-.1406-.85228s-.3921-.30682-.7245-.30682c-.2187,0-.4204.0483-.6051.14489-.1818.09375-.3338.22869-.4559.40483s-.2032.38921-.2429.63921ZM54.4197,9.1108c-.4147,0-.7727-.06961-1.0738-.20881-.2983-.14205-.5171-.35654-.6563-.64347-.1363-.28693-.169-.64488-.098-1.07386.0625-.36364.1776-.66904.3452-.91619.1704-.25.3793-.45313.6264-.60938.25-.15625.5284-.27557.8352-.35795s.6279-.13779.9631-.1662c.375-.03409.679-.07102.9119-.11079.2358-.03978.412-.09517.5284-.1662.1165-.07386.1875-.17613.2131-.30681v-.02131c.0341-.21875-.0128-.38778-.1406-.5071s-.3196-.17898-.5753-.17898c-.2727,0-.5057.05966-.6989.17898-.1931.11932-.3281.28409-.4048.49432l-1.9091-.06819c.1193-.39772.3239-.75284.6137-1.06534.2897-.31534.6576-.5625,1.1037-.74147.4488-.18182.9673-.27273,1.5553-.27273.4148,0,.7898.04971,1.125.14915.3353.09659.6179.23863.8481.42613.2329.18466.3991.41193.4985.68182s.1208.57813.064.92472L58.3487,9h-1.9602l.1534-.91193h-.0511c-.1534.22159-.3338.40909-.5412.5625-.2046.15341-.4347.26846-.6904.34517s-.5355.11506-.8395.11506Zm.8779-1.36364c.2187,0,.4261-.04546.6221-.13636.1961-.09091.3608-.21591.4944-.375.1363-.16194.223-.34944.2599-.5625l.098-.62216c-.0596.03125-.1349.05966-.2258.08522s-.1875.04972-.2898.07245c-.1023.01988-.2074.03977-.3153.05966-.1052.01704-.206.03267-.3026.04687-.2046.03125-.3821.07955-.5327.14489s-.2713.15057-.3622.25568c-.0881.10227-.142.22443-.1619.36648-.0341.21306.0156.37784.1491.49431.1335.11364.3225.17046.5668.17046Zm7.044-2.48011L61.7195,9h-2.0838l1.0909-6.54545h1.9815l-.196,1.2017h.0724c.2046-.40057.5014-.71449.8906-.94176.3892-.23011.8267-.34517,1.3125-.34517.4574,0,.8395.10227,1.1463.30682.3069.20454.5242.49147.652.86079.1279.36648.1492.79688.064,1.29119L65.951,9h-2.0838l.6264-3.76278c.0625-.3608.0185-.64347-.1321-.84802-.1477-.20738-.3892-.31108-.7244-.31108-.2188,0-.4191.0483-.6009.14489-.179.09375-.3295.22869-.4517.40483-.1193.17614-.2003.38921-.2429.63921Zm7.5288,6.32385c-.625,0-1.1449-.0866-1.5597-.2599-.4147-.1733-.7244-.4105-.929-.7117-.2045-.3011-.3025-.64203-.294-1.02271L69.082,9.4858c.0171.13636.0668.25426.1492.35369s.2003.17471.3537.22581c.1534.054.3437.081.571.081.3494,0,.6534-.0852.9119-.25568s.4176-.46448.4773-.8821l.1918-1.15057h-.0725c-.1136.20171-.267.38211-.4602.5412s-.4219.28409-.6861.375-.5568.13636-.8778.13636c-.4801,0-.8992-.11079-1.2571-.33239-.358-.22443-.6165-.57102-.7756-1.03977-.1591-.47159-.1776-1.07812-.0554-1.8196.1278-.7642.3551-1.39347.6818-1.88778.3267-.49716.7074-.86506,1.1421-1.1037.4375-.23863.8849-.35795,1.3423-.35795.3437,0,.6278.05966.8523.17898.2244.11647.4005.26704.5284.4517.1278.18466.2187.37642.2727.57528h.0597l.1832-1.12073h2.0753L73.5991,9.02557c-.0881.55682-.3026,1.02553-.6435,1.40623s-.777.6691-1.3082.8651c-.5313.196-1.1236.294-1.777.294Zm.7329-4.19743c.2529,0,.4816-.06677.6861-.20029.2046-.13352.3764-.32528.5156-.57528s.2373-.54972.2941-.89915c.0568-.35511.0568-.66051,0-.91619-.054-.25853-.1591-.45739-.3154-.59659-.1562-.13921-.3622-.20881-.6179-.20881-.2585,0-.4886.07102-.6903.21307-.1989.14204-.3665.34233-.5028.60085-.1336.25568-.2273.55824-.2813.90767-.0568.34943-.0611.64915-.0128.89915.0512.25.1534.44176.3068.57528.1563.13352.3623.20029.6179.20029Z"/></svg>
