<?xml version="1.0" encoding="UTF-8"?>
<svg xmlns="http://www.w3.org/2000/svg" xmlns:xlink="http://www.w3.org/1999/xlink" width="200px" height="150px" viewBox="0 0 200 150" version="1.1">
<g id="surface1">
<path style=" stroke:none;fill-rule:nonzero;fill:rgb(99.607843%,99.607843%,99.607843%);fill-opacity:1;" d="M 0 0 C 66 0 132 0 200 0 C 200 49.5 200 99 200 150 C 134 150 68 150 0 150 C 0 100.5 0 51 0 0 Z M 0 0 "/>
<path style=" stroke:none;fill-rule:nonzero;fill:rgb(0.784314%,0.784314%,0.784314%);fill-opacity:1;" d="M 93.707031 37.378906 C 93.816406 37.378906 93.929688 37.378906 94.042969 37.378906 C 94.277344 37.378906 94.511719 37.375 94.746094 37.375 C 95.097656 37.375 95.449219 37.371094 95.800781 37.367188 C 97.089844 37.363281 98.328125 37.425781 99.597656 37.664062 C 99.796875 37.699219 99.996094 37.734375 100.199219 37.765625 C 102.480469 38.136719 104.984375 39.125 106.699219 40.699219 C 106.78125 40.769531 106.863281 40.835938 106.949219 40.90625 C 107.824219 41.648438 108.546875 42.539062 109 43.601562 C 109 43.664062 109 43.730469 109 43.800781 C 109.097656 43.792969 109.199219 43.789062 109.300781 43.785156 C 109.730469 43.800781 110.078125 43.898438 110.476562 44.050781 C 110.542969 44.078125 110.613281 44.101562 110.6875 44.132812 C 112.417969 44.828125 113.417969 46.238281 114.132812 47.90625 C 114.191406 48.070312 114.246094 48.234375 114.300781 48.398438 C 114.328125 48.488281 114.359375 48.574219 114.390625 48.664062 C 114.960938 50.660156 114.539062 52.867188 114.277344 54.882812 C 114.125 56.09375 114.070312 57.277344 114.101562 58.5 C 114.199219 58.496094 114.296875 58.492188 114.398438 58.488281 C 115.398438 58.453125 116.027344 58.589844 116.820312 59.199219 C 117.753906 60.074219 118.078125 61.398438 118.128906 62.632812 C 118.1875 65.152344 117.710938 67.476562 115.933594 69.363281 C 115.855469 69.441406 115.777344 69.519531 115.699219 69.601562 C 115.632812 69.671875 115.566406 69.742188 115.496094 69.8125 C 114.777344 70.503906 113.792969 71.125 112.800781 71.300781 C 112.785156 71.367188 112.769531 71.429688 112.753906 71.496094 C 112.5625 72.238281 112.300781 72.921875 111.988281 73.617188 C 111.9375 73.726562 111.890625 73.835938 111.839844 73.949219 C 110.039062 77.9375 107.183594 81.460938 103.066406 83.167969 C 102.425781 83.398438 101.765625 83.554688 101.101562 83.699219 C 101.019531 83.71875 100.941406 83.734375 100.859375 83.753906 C 98.300781 84.214844 95.484375 83.429688 93.363281 81.988281 C 93.273438 81.925781 93.1875 81.863281 93.101562 81.800781 C 93.003906 81.730469 92.90625 81.664062 92.804688 81.59375 C 91.378906 80.550781 90.101562 79.253906 89.101562 77.800781 C 89.058594 77.738281 89.015625 77.675781 88.96875 77.613281 C 87.644531 75.691406 86.636719 73.613281 85.898438 71.398438 C 85.65625 71.265625 85.414062 71.148438 85.164062 71.03125 C 83.246094 70.113281 81.976562 68.785156 81.199219 66.800781 C 80.820312 65.640625 80.679688 64.609375 80.675781 63.394531 C 80.671875 63.269531 80.671875 63.144531 80.667969 63.015625 C 80.664062 61.683594 80.859375 60.351562 81.761719 59.3125 C 82.488281 58.640625 83.214844 58.453125 84.1875 58.476562 C 84.496094 58.5 84.796875 58.542969 85.101562 58.601562 C 84.992188 58.089844 84.871094 57.585938 84.726562 57.082031 C 84.054688 54.785156 83.796875 52.484375 83.679688 50.101562 C 83.589844 48.375 83.429688 46.535156 82.199219 45.199219 C 81.996094 45.054688 81.839844 44.980469 81.601562 44.898438 C 81.839844 44.222656 82.734375 43.890625 83.339844 43.578125 C 84.761719 42.953125 86.363281 42.722656 87.898438 42.601562 C 87.671875 42.234375 87.492188 41.949219 87.117188 41.730469 C 87.050781 41.691406 86.980469 41.652344 86.910156 41.609375 C 86.613281 41.453125 86.3125 41.324219 86 41.199219 C 87.734375 39.746094 90.035156 39.585938 92.199219 39.5 C 91.578125 38.90625 90.949219 38.414062 90.226562 37.953125 C 90.152344 37.902344 90.078125 37.851562 90 37.800781 C 90 37.765625 90 37.734375 90 37.699219 C 90.191406 37.667969 90.382812 37.636719 90.574219 37.605469 C 90.683594 37.589844 90.789062 37.570312 90.898438 37.554688 C 91.832031 37.417969 92.765625 37.382812 93.707031 37.378906 Z M 93.707031 37.378906 "/>
<path style=" stroke:none;fill-rule:nonzero;fill:rgb(99.607843%,99.607843%,99.607843%);fill-opacity:1;" d="M 84.5 60.300781 C 85.386719 60.503906 85.824219 60.875 86.3125 61.628906 C 86.683594 62.167969 87.125 62.542969 87.738281 62.769531 C 87.9375 62.863281 87.9375 62.863281 88.101562 63 C 88.183594 63.285156 88.207031 63.5625 88.242188 63.859375 C 88.445312 65.035156 89.238281 66.09375 90.171875 66.804688 C 91.363281 67.605469 92.5625 67.789062 93.976562 67.539062 C 95.261719 67.1875 96.253906 66.449219 96.9375 65.316406 C 97.277344 64.648438 97.542969 63.910156 97.644531 63.167969 C 97.671875 63.035156 97.671875 63.035156 97.699219 62.898438 C 98.386719 62.449219 99.203125 62.425781 100 62.5 C 100.84375 62.746094 100.84375 62.746094 101.101562 63 C 101.128906 63.160156 101.152344 63.320312 101.175781 63.480469 C 101.425781 64.890625 102.132812 66.0625 103.300781 66.898438 C 104.066406 67.347656 104.78125 67.636719 105.679688 67.625 C 105.753906 67.625 105.824219 67.625 105.894531 67.621094 C 107.097656 67.597656 108.246094 67.214844 109.140625 66.375 C 109.886719 65.554688 110.445312 64.570312 110.570312 63.460938 C 110.621094 63.140625 110.660156 63.03125 110.917969 62.824219 C 111.09375 62.71875 111.273438 62.621094 111.453125 62.527344 C 111.992188 62.246094 112.308594 61.761719 112.660156 61.285156 C 113.050781 60.761719 113.472656 60.480469 114.101562 60.300781 C 114.746094 60.226562 115.257812 60.203125 115.800781 60.601562 C 116.371094 61.402344 116.4375 62.34375 116.4375 63.304688 C 116.4375 63.398438 116.4375 63.488281 116.4375 63.582031 C 116.421875 64.460938 116.257812 65.261719 116 66.101562 C 115.972656 66.195312 115.945312 66.289062 115.914062 66.386719 C 115.539062 67.476562 114.753906 68.375 113.800781 69 C 113.730469 69.046875 113.664062 69.09375 113.59375 69.140625 C 112.945312 69.546875 112.246094 69.667969 111.5 69.800781 C 111.472656 69.929688 111.449219 70.054688 111.421875 70.1875 C 111.304688 70.707031 111.136719 71.191406 110.945312 71.6875 C 110.910156 71.777344 110.875 71.871094 110.835938 71.960938 C 109.878906 74.402344 108.609375 76.585938 106.800781 78.5 C 106.710938 78.597656 106.625 78.691406 106.53125 78.789062 C 104.960938 80.460938 102.65625 81.898438 100.316406 82.015625 C 97.097656 82.113281 94.78125 81.140625 92.398438 79 C 92.320312 78.929688 92.242188 78.859375 92.164062 78.789062 C 90.992188 77.679688 90.082031 76.300781 89.300781 74.898438 C 89.265625 74.839844 89.230469 74.78125 89.199219 74.722656 C 87.199219 71.238281 87.199219 71.238281 87.199219 69.800781 C 87.089844 69.792969 86.976562 69.785156 86.863281 69.773438 C 85.582031 69.605469 84.410156 68.785156 83.601562 67.800781 C 82.683594 66.542969 82.382812 65.160156 82.382812 63.636719 C 82.378906 63.523438 82.378906 63.414062 82.378906 63.296875 C 82.375 62.296875 82.410156 61.339844 83 60.5 C 83.476562 60.183594 83.945312 60.238281 84.5 60.300781 Z M 84.5 60.300781 "/>
<path style=" stroke:none;fill-rule:nonzero;fill:rgb(99.215686%,99.215686%,99.215686%);fill-opacity:1;" d="M 107.699219 49.398438 C 107.988281 49.613281 108.246094 49.847656 108.5 50.101562 C 108.585938 50.183594 108.585938 50.183594 108.671875 50.265625 C 109.292969 50.910156 109.691406 51.714844 110.101562 52.5 C 110.132812 52.566406 110.167969 52.632812 110.207031 52.703125 C 111.128906 54.507812 111.820312 56.363281 111.898438 58.398438 C 111.910156 58.542969 111.910156 58.542969 111.917969 58.691406 C 111.933594 59 111.945312 59.308594 111.957031 59.617188 C 111.960938 59.714844 111.964844 59.808594 111.972656 59.910156 C 111.980469 60.4375 111.921875 60.742188 111.570312 61.148438 C 111.332031 61.390625 111.082031 61.609375 110.800781 61.800781 C 110.734375 61.800781 110.667969 61.800781 110.601562 61.800781 C 110.585938 61.726562 110.570312 61.652344 110.554688 61.578125 C 110.246094 60.175781 109.550781 58.949219 108.320312 58.164062 C 107.09375 57.496094 105.894531 57.285156 104.53125 57.65625 C 103.128906 58.144531 102.277344 58.960938 101.636719 60.277344 C 101.417969 60.742188 101.246094 61.207031 101.101562 61.699219 C 101.027344 61.6875 100.957031 61.671875 100.882812 61.65625 C 99.761719 61.445312 98.710938 61.417969 97.601562 61.699219 C 97.578125 61.621094 97.558594 61.539062 97.539062 61.457031 C 97.195312 60.242188 96.648438 58.964844 95.515625 58.289062 C 94.207031 57.566406 93.019531 57.238281 91.519531 57.664062 C 90.945312 57.859375 90.480469 58.128906 90 58.5 C 89.84375 58.609375 89.84375 58.609375 89.6875 58.71875 C 88.976562 59.339844 88.613281 60.25 88.304688 61.117188 C 88.214844 61.355469 88.121094 61.574219 88 61.800781 C 87.007812 61.101562 87.007812 61.101562 86.800781 60.699219 C 86.753906 60.296875 86.777344 59.902344 86.800781 59.5 C 86.804688 59.355469 86.808594 59.210938 86.808594 59.066406 C 86.863281 57.167969 87.046875 55.21875 87.898438 53.5 C 87.933594 53.429688 87.964844 53.363281 88 53.289062 C 88.679688 51.886719 89.460938 50.582031 90.925781 49.894531 C 91.832031 49.585938 92.898438 49.847656 93.8125 50 C 97.296875 50.53125 100.628906 50.105469 104.027344 49.273438 C 105.234375 48.976562 106.59375 48.660156 107.699219 49.398438 Z M 107.699219 49.398438 "/>
<path style=" stroke:none;fill-rule:nonzero;fill:rgb(1.176471%,1.176471%,1.176471%);fill-opacity:1;" d="M 171.03125 90.878906 C 171.128906 90.882812 171.226562 90.882812 171.324219 90.882812 C 171.425781 90.882812 171.527344 90.886719 171.632812 90.886719 C 171.734375 90.886719 171.835938 90.890625 171.941406 90.890625 C 172.195312 90.894531 172.449219 90.894531 172.699219 90.898438 C 172.699219 91.492188 172.699219 92.089844 172.699219 92.699219 C 171.804688 92.742188 171.804688 92.742188 171.523438 92.757812 C 171.453125 92.761719 171.378906 92.765625 171.304688 92.769531 C 171.191406 92.773438 171.191406 92.773438 171.078125 92.78125 C 170.898438 92.78125 170.898438 92.78125 170.800781 92.898438 C 170.71875 93.417969 170.679688 93.902344 170.960938 94.359375 C 171.101562 94.523438 171.246094 94.683594 171.390625 94.84375 C 172.207031 95.839844 172.308594 97.164062 172.199219 98.398438 C 171.945312 99.742188 171.304688 100.792969 170.199219 101.601562 C 168.742188 102.457031 167.113281 102.519531 165.46875 102.542969 C 165.351562 102.546875 165.234375 102.550781 165.113281 102.550781 C 164.957031 102.554688 164.957031 102.554688 164.792969 102.558594 C 164.460938 102.605469 164.269531 102.703125 164 102.898438 C 163.859375 103.183594 163.867188 103.386719 163.898438 103.699219 C 164.085938 103.929688 164.234375 104.066406 164.5 104.199219 C 164.644531 104.210938 164.789062 104.214844 164.933594 104.214844 C 165.023438 104.21875 165.109375 104.21875 165.203125 104.21875 C 165.300781 104.21875 165.398438 104.21875 165.5 104.222656 C 165.707031 104.222656 165.914062 104.226562 166.121094 104.230469 C 166.445312 104.234375 166.773438 104.238281 167.097656 104.238281 C 170.792969 104.273438 170.792969 104.273438 172.230469 105.496094 C 172.996094 106.324219 173.21875 107.164062 173.230469 108.261719 C 173.234375 108.359375 173.238281 108.453125 173.238281 108.554688 C 173.246094 109.226562 173.125 109.710938 172.800781 110.300781 C 172.765625 110.363281 172.730469 110.429688 172.691406 110.496094 C 172.140625 111.429688 170.996094 111.839844 170 112.101562 C 168.921875 112.332031 167.84375 112.339844 166.742188 112.335938 C 166.65625 112.335938 166.566406 112.335938 166.476562 112.335938 C 162.667969 112.328125 162.667969 112.328125 161.261719 111.089844 C 160.503906 110.300781 160.34375 109.535156 160.351562 108.472656 C 160.382812 107.554688 160.671875 106.988281 161.335938 106.355469 C 161.707031 106.050781 162.046875 105.855469 162.5 105.699219 C 162.460938 105.648438 162.421875 105.601562 162.378906 105.550781 C 161.863281 104.886719 161.53125 104.308594 161.558594 103.449219 C 161.675781 102.75 162.15625 102.304688 162.699219 101.898438 C 162.832031 101.800781 162.964844 101.699219 163.101562 101.601562 C 163.035156 101.542969 162.96875 101.488281 162.898438 101.429688 C 161.914062 100.578125 161.300781 99.683594 161.175781 98.355469 C 161.082031 96.75 161.324219 95.574219 162.355469 94.308594 C 163.265625 93.316406 164.625 92.855469 165.945312 92.789062 C 168.070312 92.726562 168.070312 92.726562 169 93.101562 C 168.996094 93.042969 168.992188 92.984375 168.984375 92.925781 C 168.960938 92.355469 169.015625 92.046875 169.398438 91.601562 C 169.886719 91.117188 170.339844 90.871094 171.03125 90.878906 Z M 171.03125 90.878906 "/>
<path style=" stroke:none;fill-rule:nonzero;fill:rgb(1.176471%,1.176471%,1.176471%);fill-opacity:1;" d="M 73.507812 94.257812 C 74.785156 95.300781 75.605469 96.976562 75.800781 98.601562 C 75.964844 101.042969 75.714844 103.375 74.046875 105.292969 C 72.753906 106.667969 71.214844 107.269531 69.351562 107.332031 C 67.519531 107.363281 65.886719 106.769531 64.554688 105.484375 C 62.957031 103.707031 62.488281 101.515625 62.582031 99.183594 C 62.703125 97.324219 63.570312 95.5625 64.917969 94.289062 C 67.429688 92.15625 70.949219 92.3125 73.507812 94.257812 Z M 73.507812 94.257812 "/>
<path style=" stroke:none;fill-rule:nonzero;fill:rgb(1.176471%,1.176471%,1.176471%);fill-opacity:1;" d="M 140.601562 93.699219 C 141.597656 94.476562 142.023438 95.683594 142.199219 96.898438 C 142.253906 97.539062 142.25 98.179688 142.25 98.820312 C 142.253906 99.003906 142.253906 99.183594 142.257812 99.367188 C 142.261719 99.839844 142.265625 100.316406 142.265625 100.789062 C 142.269531 101.277344 142.273438 101.761719 142.277344 102.25 C 142.289062 103.199219 142.292969 104.148438 142.300781 105.101562 C 142.730469 105.132812 143.15625 105.164062 143.601562 105.199219 C 143.601562 105.792969 143.601562 106.386719 143.601562 107 C 143.300781 107.011719 143 107.019531 142.699219 107.023438 C 142.617188 107.027344 142.53125 107.03125 142.445312 107.035156 C 141.785156 107.046875 141.238281 106.921875 140.746094 106.457031 C 140.335938 105.980469 140.195312 105.609375 140.101562 105 C 140.042969 105.066406 139.984375 105.128906 139.929688 105.199219 C 138.789062 106.488281 137.6875 107.207031 135.929688 107.324219 C 134.648438 107.375 133.515625 107.125 132.5 106.300781 C 132.4375 106.25 132.375 106.199219 132.3125 106.148438 C 131.566406 105.484375 131.152344 104.546875 131.074219 103.566406 C 131.039062 102.324219 131.355469 101.332031 132.199219 100.398438 C 132.246094 100.347656 132.289062 100.296875 132.335938 100.246094 C 132.714844 99.878906 133.171875 99.632812 133.636719 99.386719 C 133.726562 99.339844 133.726562 99.339844 133.816406 99.289062 C 135.222656 98.585938 136.722656 98.542969 138.257812 98.574219 C 138.4375 98.578125 138.617188 98.578125 138.796875 98.582031 C 139.230469 98.585938 139.664062 98.589844 140.101562 98.601562 C 140.089844 98.3125 140.074219 98.027344 140.0625 97.738281 C 140.058594 97.660156 140.054688 97.578125 140.050781 97.496094 C 140.011719 96.664062 139.839844 95.785156 139.199219 95.199219 C 138.261719 94.632812 137.1875 94.554688 136.117188 94.753906 C 135.898438 94.820312 135.703125 94.898438 135.5 95 C 135.394531 95.050781 135.289062 95.101562 135.179688 95.15625 C 134.449219 95.789062 134.289062 96.453125 134.101562 97.398438 C 133.308594 97.234375 132.515625 97.070312 131.699219 96.898438 C 131.828125 95.730469 132.199219 94.863281 133.125 94.117188 C 135.203125 92.605469 138.414062 92.070312 140.601562 93.699219 Z M 140.601562 93.699219 "/>
<path style=" stroke:none;fill-rule:nonzero;fill:rgb(0.784314%,0.784314%,0.784314%);fill-opacity:1;" d="M 48.453125 93.800781 C 50.050781 95.078125 50.730469 96.679688 51.058594 98.660156 C 51.117188 99.269531 51.101562 99.886719 51.101562 100.5 C 47.699219 100.5 44.300781 100.5 40.800781 100.5 C 40.964844 101.996094 41.285156 103.675781 42.5 104.699219 C 43.597656 105.363281 44.617188 105.558594 45.890625 105.355469 C 46.792969 105.113281 47.578125 104.578125 48.101562 103.800781 C 48.28125 103.472656 48.445312 103.140625 48.601562 102.800781 C 49.085938 102.867188 49.527344 102.996094 49.988281 103.15625 C 50.054688 103.179688 50.125 103.203125 50.195312 103.226562 C 50.363281 103.285156 50.53125 103.34375 50.699219 103.398438 C 50.53125 104.566406 49.644531 105.5 48.75 106.195312 C 47.25 107.226562 45.363281 107.511719 43.578125 107.269531 C 42.03125 106.980469 40.75 106.160156 39.785156 104.925781 C 38.808594 103.460938 38.445312 101.855469 38.457031 100.109375 C 38.457031 99.90625 38.453125 99.703125 38.449219 99.5 C 38.441406 97.667969 39.03125 95.949219 40.242188 94.554688 C 42.347656 92.476562 46 92.0625 48.453125 93.800781 Z M 48.453125 93.800781 "/>
<path style=" stroke:none;fill-rule:nonzero;fill:rgb(1.176471%,1.176471%,1.176471%);fill-opacity:1;" d="M 106.519531 88.167969 C 106.640625 88.167969 106.765625 88.164062 106.890625 88.164062 C 108.964844 88.164062 110.851562 88.839844 112.367188 90.265625 C 113.28125 91.191406 114.199219 92.554688 114.199219 93.898438 C 113.808594 94.132812 113.382812 94.210938 112.945312 94.3125 C 112.867188 94.332031 112.789062 94.347656 112.710938 94.367188 C 112.402344 94.4375 112.117188 94.5 111.800781 94.5 C 111.765625 94.398438 111.730469 94.292969 111.695312 94.1875 C 111.097656 92.503906 110.382812 91.34375 108.75 90.546875 C 107.535156 90.035156 105.886719 89.964844 104.617188 90.355469 C 103.070312 91.003906 101.859375 92.15625 101.210938 93.714844 C 100.203125 96.347656 100.226562 99.136719 101.238281 101.773438 C 101.492188 102.332031 101.828125 102.816406 102.199219 103.300781 C 102.265625 103.390625 102.265625 103.390625 102.328125 103.484375 C 103.082031 104.492188 104.390625 105.101562 105.601562 105.300781 C 107.246094 105.449219 108.765625 105.109375 110.078125 104.082031 C 111.035156 103.203125 111.53125 102.058594 111.800781 100.800781 C 112.695312 100.925781 113.535156 101.136719 114.398438 101.398438 C 114.070312 103.320312 112.84375 104.945312 111.277344 106.058594 C 109.273438 107.347656 106.785156 107.578125 104.496094 107.097656 C 102.859375 106.714844 101.574219 105.871094 100.398438 104.699219 C 100.332031 104.632812 100.265625 104.570312 100.199219 104.5 C 98.390625 102.59375 97.832031 99.792969 97.859375 97.257812 C 97.882812 96.410156 97.992188 95.621094 98.199219 94.800781 C 98.226562 94.683594 98.25 94.570312 98.277344 94.453125 C 98.816406 92.261719 100.21875 90.398438 102.132812 89.21875 C 102.789062 88.828125 103.453125 88.578125 104.199219 88.398438 C 104.261719 88.382812 104.324219 88.363281 104.386719 88.347656 C 105.09375 88.164062 105.792969 88.167969 106.519531 88.167969 Z M 106.519531 88.167969 "/>
<path style=" stroke:none;fill-rule:nonzero;fill:rgb(0%,0%,0%);fill-opacity:1;" d="M 117.101562 87.699219 C 117.792969 87.699219 118.484375 87.699219 119.199219 87.699219 C 119.25 91.363281 119.25 91.363281 119.300781 95.101562 C 119.53125 94.804688 119.761719 94.507812 120 94.199219 C 121.152344 93.078125 122.433594 92.753906 124 92.757812 C 125.179688 92.78125 126.144531 93.167969 127 94 C 128.472656 95.574219 128.429688 97.433594 128.417969 99.460938 C 128.417969 99.679688 128.417969 99.898438 128.417969 100.113281 C 128.417969 100.683594 128.414062 101.253906 128.414062 101.824219 C 128.410156 102.410156 128.410156 102.992188 128.410156 103.574219 C 128.40625 104.714844 128.402344 105.859375 128.398438 107 C 127.707031 107 127.015625 107 126.300781 107 C 126.300781 106.714844 126.296875 106.433594 126.296875 106.140625 C 126.292969 105.199219 126.289062 104.257812 126.28125 103.316406 C 126.277344 102.746094 126.273438 102.175781 126.273438 101.605469 C 126.269531 101.054688 126.269531 100.503906 126.261719 99.953125 C 126.261719 99.746094 126.261719 99.535156 126.261719 99.324219 C 126.28125 97.210938 126.28125 97.210938 125.371094 95.355469 C 124.566406 94.625 123.539062 94.640625 122.515625 94.683594 C 121.691406 94.75 120.972656 95.226562 120.398438 95.800781 C 119.554688 96.882812 119.289062 98.195312 119.28125 99.542969 C 119.277344 99.664062 119.277344 99.664062 119.277344 99.785156 C 119.273438 100.050781 119.269531 100.316406 119.269531 100.585938 C 119.265625 100.769531 119.265625 100.953125 119.261719 101.140625 C 119.257812 101.625 119.25 102.109375 119.246094 102.59375 C 119.242188 103.089844 119.234375 103.585938 119.230469 104.082031 C 119.21875 105.054688 119.210938 106.027344 119.199219 107 C 118.507812 107 117.8125 107 117.101562 107 C 117.101562 100.632812 117.101562 94.261719 117.101562 87.699219 Z M 117.101562 87.699219 "/>
<path style=" stroke:none;fill-rule:nonzero;fill:rgb(99.215686%,99.215686%,99.215686%);fill-opacity:1;" d="M 71.453125 95.15625 C 72.609375 95.996094 73.1875 97.226562 73.449219 98.609375 C 73.699219 100.546875 73.464844 102.628906 72.269531 104.238281 C 71.445312 105.042969 70.46875 105.511719 69.3125 105.550781 C 68.183594 105.511719 67.210938 105.207031 66.398438 104.398438 C 65.042969 102.878906 64.933594 101.042969 65 99.101562 C 65.101562 97.648438 65.617188 96.414062 66.6875 95.425781 C 68.007812 94.316406 69.992188 94.261719 71.453125 95.15625 Z M 71.453125 95.15625 "/>
<path style=" stroke:none;fill-rule:nonzero;fill:rgb(1.176471%,1.176471%,1.176471%);fill-opacity:1;" d="M 77 93.101562 C 77.792969 93.101562 78.585938 93.101562 79.398438 93.101562 C 80.09375 95.03125 80.769531 96.964844 81.4375 98.90625 C 81.621094 99.453125 81.808594 100 81.996094 100.542969 C 82.066406 100.742188 82.132812 100.941406 82.203125 101.140625 C 82.632812 102.394531 83.066406 103.648438 83.5 104.898438 C 83.792969 104.191406 84.054688 103.476562 84.300781 102.75 C 84.339844 102.640625 84.378906 102.53125 84.414062 102.417969 C 84.496094 102.1875 84.578125 101.953125 84.65625 101.71875 C 84.867188 101.101562 85.082031 100.488281 85.292969 99.871094 C 85.335938 99.746094 85.378906 99.625 85.421875 99.496094 C 85.796875 98.410156 86.171875 97.328125 86.546875 96.242188 C 86.609375 96.0625 86.675781 95.878906 86.738281 95.699219 C 86.824219 95.449219 86.910156 95.195312 87 94.945312 C 87.023438 94.875 87.050781 94.800781 87.074219 94.726562 C 87.265625 94.175781 87.484375 93.644531 87.699219 93.101562 C 88.492188 93.101562 89.285156 93.101562 90.101562 93.101562 C 89.621094 94.488281 89.117188 95.863281 88.585938 97.230469 C 88.46875 97.539062 88.351562 97.847656 88.230469 98.15625 C 88.148438 98.371094 88.066406 98.589844 87.984375 98.804688 C 87.550781 99.925781 87.121094 101.050781 86.695312 102.175781 C 86.429688 102.863281 86.167969 103.554688 85.902344 104.246094 C 85.628906 104.964844 85.351562 105.6875 85.078125 106.40625 C 84.898438 106.886719 84.714844 107.367188 84.53125 107.847656 C 84.445312 108.078125 84.359375 108.304688 84.273438 108.53125 C 84.152344 108.847656 84.03125 109.164062 83.914062 109.476562 C 83.878906 109.570312 83.84375 109.660156 83.808594 109.757812 C 83.484375 110.597656 83.132812 111.367188 82.300781 111.800781 C 81.867188 111.96875 81.511719 112.023438 81.050781 112.019531 C 80.871094 112.019531 80.871094 112.019531 80.6875 112.015625 C 80.5625 112.015625 80.441406 112.015625 80.3125 112.011719 C 80.1875 112.011719 80.058594 112.011719 79.929688 112.011719 C 79.621094 112.007812 79.308594 112.003906 79 112 C 79 111.40625 79 110.8125 79 110.199219 C 79.792969 110.167969 80.585938 110.132812 81.398438 110.101562 C 81.753906 109.304688 81.753906 109.304688 82.082031 108.5 C 82.125 108.386719 82.167969 108.277344 82.214844 108.164062 C 82.394531 107.40625 82.167969 106.730469 81.886719 106.027344 C 81.835938 105.902344 81.835938 105.902344 81.785156 105.773438 C 81.714844 105.59375 81.644531 105.417969 81.574219 105.238281 C 81.421875 104.847656 81.269531 104.460938 81.113281 104.070312 C 81.035156 103.863281 80.953125 103.65625 80.871094 103.453125 C 80.421875 102.300781 79.980469 101.144531 79.542969 99.988281 C 79.386719 99.570312 79.226562 99.152344 79.070312 98.738281 C 79.03125 98.632812 78.992188 98.53125 78.953125 98.425781 C 78.675781 97.703125 78.402344 96.980469 78.125 96.257812 C 78.046875 96.058594 77.972656 95.863281 77.898438 95.664062 C 77.789062 95.386719 77.683594 95.105469 77.574219 94.824219 C 77.476562 94.570312 77.378906 94.316406 77.28125 94.0625 C 77.253906 93.988281 77.226562 93.914062 77.195312 93.835938 C 77 93.324219 77 93.324219 77 93.101562 Z M 77 93.101562 "/>
<path style=" stroke:none;fill-rule:nonzero;fill:rgb(0.392157%,0.392157%,0.392157%);fill-opacity:1;" d="M 156 93.800781 C 156.953125 94.644531 157.523438 95.875 157.617188 97.144531 C 157.625 97.40625 157.625 97.667969 157.621094 97.929688 C 157.621094 98.027344 157.621094 98.125 157.621094 98.226562 C 157.621094 98.550781 157.621094 98.875 157.621094 99.199219 C 157.621094 99.421875 157.617188 99.648438 157.617188 99.871094 C 157.617188 100.464844 157.617188 101.054688 157.613281 101.644531 C 157.613281 102.246094 157.609375 102.851562 157.609375 103.453125 C 157.609375 104.636719 157.605469 105.816406 157.601562 107 C 156.90625 107 156.214844 107 155.5 107 C 155.5 106.714844 155.5 106.433594 155.496094 106.140625 C 155.492188 105.195312 155.488281 104.253906 155.480469 103.3125 C 155.476562 102.742188 155.472656 102.171875 155.472656 101.601562 C 155.472656 101.046875 155.46875 100.496094 155.464844 99.945312 C 155.460938 99.734375 155.460938 99.523438 155.460938 99.316406 C 155.480469 97.160156 155.480469 97.160156 154.5 95.300781 C 153.601562 94.667969 152.667969 94.589844 151.601562 94.699219 C 150.59375 94.949219 149.835938 95.5 149.273438 96.367188 C 148.714844 97.367188 148.488281 98.394531 148.480469 99.53125 C 148.476562 99.652344 148.476562 99.652344 148.476562 99.777344 C 148.472656 100.042969 148.472656 100.308594 148.46875 100.574219 C 148.464844 100.757812 148.464844 100.945312 148.460938 101.128906 C 148.457031 101.617188 148.453125 102.101562 148.445312 102.589844 C 148.441406 103.085938 148.4375 103.582031 148.429688 104.078125 C 148.421875 105.050781 148.410156 106.027344 148.398438 107 C 147.707031 107 147.015625 107 146.300781 107 C 146.300781 102.414062 146.300781 97.824219 146.300781 93.101562 C 146.960938 93.101562 147.621094 93.101562 148.300781 93.101562 C 148.332031 93.792969 148.367188 94.484375 148.398438 95.199219 C 148.5 95.066406 148.597656 94.933594 148.699219 94.792969 C 149.429688 93.863281 150.425781 93.035156 151.625 92.824219 C 153.234375 92.679688 154.683594 92.761719 156 93.800781 Z M 156 93.800781 "/>
<path style=" stroke:none;fill-rule:nonzero;fill:rgb(0.784314%,0.784314%,0.784314%);fill-opacity:1;" d="M 26.398438 88.398438 C 27.160156 88.398438 27.917969 88.398438 28.699219 88.398438 C 28.699219 93.910156 28.699219 99.421875 28.699219 105.101562 C 31.769531 105.101562 34.839844 105.101562 38 105.101562 C 38 105.726562 38 106.355469 38 107 C 34.171875 107 30.34375 107 26.398438 107 C 26.398438 100.863281 26.398438 94.722656 26.398438 88.398438 Z M 26.398438 88.398438 "/>
<path style=" stroke:none;fill-rule:nonzero;fill:rgb(99.215686%,99.215686%,99.215686%);fill-opacity:1;" d="M 95.28125 59.3125 C 96.007812 59.917969 96.597656 60.871094 96.730469 61.824219 C 96.746094 62.058594 96.75 62.289062 96.75 62.523438 C 96.75 62.609375 96.75 62.691406 96.75 62.777344 C 96.71875 63.824219 96.324219 64.738281 95.601562 65.5 C 94.726562 66.320312 93.851562 66.671875 92.652344 66.667969 C 91.617188 66.617188 90.671875 66.109375 89.976562 65.34375 C 89.179688 64.230469 88.894531 63.15625 89 61.800781 C 89.261719 60.636719 89.945312 59.695312 90.898438 59 C 92.367188 58.175781 93.925781 58.359375 95.28125 59.3125 Z M 95.28125 59.3125 "/>
<path style=" stroke:none;fill-rule:nonzero;fill:rgb(99.215686%,99.215686%,99.215686%);fill-opacity:1;" d="M 108.238281 59.269531 C 108.6875 59.640625 109.003906 60.097656 109.300781 60.601562 C 109.34375 60.671875 109.386719 60.746094 109.433594 60.824219 C 109.871094 61.710938 109.835938 62.828125 109.613281 63.773438 C 109.203125 64.921875 108.546875 65.683594 107.5 66.300781 C 107.441406 66.335938 107.378906 66.371094 107.316406 66.410156 C 106.5625 66.773438 105.46875 66.730469 104.671875 66.507812 C 104.398438 66.390625 104.152344 66.257812 103.898438 66.101562 C 103.828125 66.054688 103.753906 66.011719 103.679688 65.96875 C 102.707031 65.320312 102.226562 64.320312 102 63.199219 C 101.863281 61.917969 102.1875 60.792969 102.976562 59.773438 C 104.398438 58.21875 106.535156 58.113281 108.238281 59.269531 Z M 108.238281 59.269531 "/>
<path style=" stroke:none;fill-rule:nonzero;fill:rgb(1.568628%,1.568628%,1.568628%);fill-opacity:1;" d="M 60.25 92.773438 C 60.324219 92.773438 60.398438 92.773438 60.472656 92.773438 C 60.917969 92.773438 61.277344 92.832031 61.699219 93 C 61.648438 93.703125 61.597656 94.402344 61.5 95.101562 C 61.414062 95.082031 61.328125 95.066406 61.238281 95.050781 C 60.097656 94.894531 58.941406 94.890625 57.976562 95.574219 C 56.894531 96.464844 56.460938 97.527344 56.300781 98.898438 C 56.261719 99.527344 56.261719 100.160156 56.257812 100.789062 C 56.257812 100.96875 56.253906 101.148438 56.253906 101.328125 C 56.246094 101.796875 56.242188 102.269531 56.238281 102.738281 C 56.234375 103.21875 56.230469 103.699219 56.226562 104.179688 C 56.214844 105.121094 56.207031 106.058594 56.199219 107 C 55.472656 107 54.746094 107 54 107 C 54 102.414062 54 97.824219 54 93.101562 C 54.691406 93.101562 55.386719 93.101562 56.101562 93.101562 C 56.132812 93.761719 56.164062 94.421875 56.199219 95.101562 C 56.296875 94.964844 56.394531 94.832031 56.492188 94.695312 C 57.40625 93.527344 58.761719 92.757812 60.25 92.773438 Z M 60.25 92.773438 "/>
<path style=" stroke:none;fill-rule:nonzero;fill:rgb(98.823529%,98.823529%,98.823529%);fill-opacity:1;" d="M 168.726562 94.820312 C 169.328125 95.226562 169.75 95.820312 169.953125 96.519531 C 170.144531 97.660156 170.097656 98.808594 169.472656 99.804688 C 169.011719 100.402344 168.34375 100.796875 167.601562 100.898438 C 166.351562 100.980469 165.242188 101.011719 164.210938 100.226562 C 163.867188 99.902344 163.667969 99.539062 163.5 99.101562 C 163.464844 99.007812 163.429688 98.917969 163.390625 98.828125 C 163.136719 97.917969 163.195312 96.800781 163.566406 95.9375 C 164.007812 95.152344 164.574219 94.675781 165.425781 94.390625 C 166.558594 94.113281 167.710938 94.253906 168.726562 94.820312 Z M 168.726562 94.820312 "/>
<path style=" stroke:none;fill-rule:nonzero;fill:rgb(98.431373%,98.431373%,98.431373%);fill-opacity:1;" d="M 166.527344 106.046875 C 166.792969 106.050781 167.058594 106.046875 167.324219 106.046875 C 168.441406 106.042969 169.640625 106.046875 170.519531 106.835938 C 170.980469 107.382812 171.050781 107.925781 171.039062 108.625 C 170.960938 109.175781 170.660156 109.527344 170.292969 109.925781 C 169.257812 110.542969 168.136719 110.621094 166.960938 110.625 C 166.746094 110.625 166.53125 110.628906 166.320312 110.632812 C 165.105469 110.640625 163.941406 110.539062 163 109.699219 C 162.550781 109.164062 162.542969 108.691406 162.570312 108.003906 C 162.625 107.464844 162.820312 107.15625 163.195312 106.789062 C 164.175781 106.027344 165.34375 106.035156 166.527344 106.046875 Z M 166.527344 106.046875 "/>
<path style=" stroke:none;fill-rule:nonzero;fill:rgb(99.215686%,99.215686%,99.215686%);fill-opacity:1;" d="M 137.601562 100.289062 C 137.671875 100.289062 137.746094 100.289062 137.820312 100.289062 C 138.046875 100.292969 138.273438 100.292969 138.5 100.292969 C 138.65625 100.292969 138.8125 100.292969 138.964844 100.296875 C 139.34375 100.296875 139.722656 100.296875 140.101562 100.300781 C 140.132812 101.882812 139.949219 103.273438 138.828125 104.488281 C 137.949219 105.292969 136.894531 105.554688 135.726562 105.53125 C 135.007812 105.464844 134.488281 105.238281 134 104.707031 C 133.515625 104.117188 133.449219 103.574219 133.460938 102.828125 C 133.546875 102.066406 133.980469 101.53125 134.5625 101.058594 C 135.507812 100.429688 136.488281 100.28125 137.601562 100.289062 Z M 137.601562 100.289062 "/>
<path style=" stroke:none;fill-rule:nonzero;fill:rgb(99.215686%,99.215686%,99.215686%);fill-opacity:1;" d="M 46.707031 95.0625 C 47.65625 95.832031 48.25 96.796875 48.5 98 C 48.5 98.265625 48.5 98.527344 48.5 98.800781 C 45.992188 98.800781 43.484375 98.800781 40.898438 98.800781 C 41.046875 97.492188 41.347656 96.28125 42.398438 95.398438 C 43.703125 94.417969 45.257812 94.292969 46.707031 95.0625 Z M 46.707031 95.0625 "/>
</g>
</svg>
