<svg width="96" height="22" viewBox="0 0 96 22" fill="none" xmlns="http://www.w3.org/2000/svg">
<path d="M10 14H12M13.5 21L13.184 20.581C12.474 19.637 12.297 18.194 12.747 17M8.5 21L8.816 20.581C9.526 19.637 9.703 18.194 9.253 17M6 21H16M13 1H9C5.72 1 4.081 1 2.919 1.814C2.48904 2.11507 2.11507 2.48904 1.814 2.919C1 4.08 1 5.72 1 9C1 12.28 1 13.919 1.814 15.081C2.11507 15.511 2.48904 15.8849 2.919 16.186C4.08 17 5.72 17 9 17H13C16.28 17 17.919 17 19.081 16.186C19.511 15.8849 19.8849 15.511 20.186 15.081C21 13.92 21 12.28 21 9C21 5.72 21 4.081 20.186 2.919C19.8849 2.48904 19.511 2.11507 19.081 1.814C17.92 1 16.28 1 13 1Z" stroke="white" stroke-width="1.5" stroke-linecap="round" stroke-linejoin="round"/>
<path d="M26.0568 15V6.27273H27.1136V14.0625H31.1705V15H26.0568ZM35.4148 15.1364C34.7841 15.1364 34.2401 14.9972 33.7827 14.7188C33.3281 14.4375 32.9773 14.0455 32.7301 13.5426C32.4858 13.0369 32.3636 12.4489 32.3636 11.7784C32.3636 11.108 32.4858 10.517 32.7301 10.0057C32.9773 9.49148 33.321 9.09091 33.7614 8.80398C34.2045 8.5142 34.7216 8.36932 35.3125 8.36932C35.6534 8.36932 35.9901 8.42614 36.3224 8.53977C36.6548 8.65341 36.9574 8.83807 37.2301 9.09375C37.5028 9.34659 37.7202 9.68182 37.8821 10.0994C38.044 10.517 38.125 11.0312 38.125 11.642V12.0682H33.0795V11.1989H37.1023C37.1023 10.8295 37.0284 10.5 36.8807 10.2102C36.7358 9.92045 36.5284 9.69176 36.2585 9.52415C35.9915 9.35653 35.6761 9.27273 35.3125 9.27273C34.9119 9.27273 34.5653 9.37216 34.2727 9.57102C33.983 9.76705 33.7599 10.0227 33.6037 10.3381C33.4474 10.6534 33.3693 10.9915 33.3693 11.3523V11.9318C33.3693 12.4261 33.4545 12.8452 33.625 13.1889C33.7983 13.5298 34.0384 13.7898 34.3452 13.9688C34.652 14.1449 35.0085 14.233 35.4148 14.233C35.679 14.233 35.9176 14.196 36.1307 14.1222C36.3466 14.0455 36.5327 13.9318 36.6889 13.7812C36.8452 13.6278 36.9659 13.4375 37.0511 13.2102L38.0227 13.483C37.9205 13.8125 37.7486 14.1023 37.5071 14.3523C37.2656 14.5994 36.9673 14.7926 36.6122 14.9318C36.2571 15.0682 35.858 15.1364 35.4148 15.1364ZM39.6548 15V8.45455H40.6264V9.44318H40.6946C40.8139 9.11932 41.0298 8.85653 41.3423 8.65483C41.6548 8.45312 42.0071 8.35227 42.3991 8.35227C42.473 8.35227 42.5653 8.35369 42.6761 8.35653C42.7869 8.35937 42.8707 8.36364 42.9276 8.36932V9.39205C42.8935 9.38352 42.8153 9.37074 42.6932 9.35369C42.5739 9.33381 42.4474 9.32386 42.3139 9.32386C41.9957 9.32386 41.7116 9.39062 41.4616 9.52415C41.2145 9.65483 41.0185 9.83665 40.8736 10.0696C40.7315 10.2997 40.6605 10.5625 40.6605 10.858V15H39.6548ZM46.5795 15.1364C45.9886 15.1364 45.4702 14.9957 45.0241 14.7145C44.581 14.4332 44.2344 14.0398 43.9844 13.5341C43.7372 13.0284 43.6136 12.4375 43.6136 11.7614C43.6136 11.0795 43.7372 10.4844 43.9844 9.97585C44.2344 9.46733 44.581 9.07244 45.0241 8.79119C45.4702 8.50994 45.9886 8.36932 46.5795 8.36932C47.1705 8.36932 47.6875 8.50994 48.1307 8.79119C48.5767 9.07244 48.9233 9.46733 49.1705 9.97585C49.4205 10.4844 49.5455 11.0795 49.5455 11.7614C49.5455 12.4375 49.4205 13.0284 49.1705 13.5341C48.9233 14.0398 48.5767 14.4332 48.1307 14.7145C47.6875 14.9957 47.1705 15.1364 46.5795 15.1364ZM46.5795 14.233C47.0284 14.233 47.3977 14.1179 47.6875 13.8878C47.9773 13.6577 48.1918 13.3551 48.331 12.9801C48.4702 12.6051 48.5398 12.1989 48.5398 11.7614C48.5398 11.3239 48.4702 10.9162 48.331 10.5384C48.1918 10.1605 47.9773 9.85511 47.6875 9.62216C47.3977 9.3892 47.0284 9.27273 46.5795 9.27273C46.1307 9.27273 45.7614 9.3892 45.4716 9.62216C45.1818 9.85511 44.9673 10.1605 44.8281 10.5384C44.6889 10.9162 44.6193 11.3239 44.6193 11.7614C44.6193 12.1989 44.6889 12.6051 44.8281 12.9801C44.9673 13.3551 45.1818 13.6577 45.4716 13.8878C45.7614 14.1179 46.1307 14.233 46.5795 14.233ZM51.494 17.4545C51.3235 17.4545 51.1715 17.4403 51.038 17.4119C50.9045 17.3864 50.8121 17.3608 50.761 17.3352L51.0167 16.4489C51.261 16.5114 51.4769 16.5341 51.6644 16.517C51.8519 16.5 52.0181 16.4162 52.163 16.2656C52.3107 16.1179 52.4457 15.8778 52.5678 15.5455L52.7553 15.0341L50.3349 8.45455H51.4258L53.2326 13.6705H53.3008L55.1076 8.45455H56.1985L53.4201 15.9545C53.2951 16.2926 53.1403 16.5724 52.9556 16.794C52.771 17.0185 52.5565 17.1847 52.3121 17.2926C52.0707 17.4006 51.7979 17.4545 51.494 17.4545ZM68.06 9H67.0032C66.9407 8.69602 66.8313 8.42898 66.6751 8.19886C66.5217 7.96875 66.3342 7.77557 66.1126 7.61932C65.8938 7.46023 65.6509 7.34091 65.3839 7.26136C65.1168 7.18182 64.8384 7.14205 64.5487 7.14205C64.0202 7.14205 63.5415 7.27557 63.1126 7.54261C62.6864 7.80966 62.3469 8.20312 62.0941 8.72301C61.8441 9.2429 61.7191 9.88068 61.7191 10.6364C61.7191 11.392 61.8441 12.0298 62.0941 12.5497C62.3469 13.0696 62.6864 13.4631 63.1126 13.7301C63.5415 13.9972 64.0202 14.1307 64.5487 14.1307C64.8384 14.1307 65.1168 14.0909 65.3839 14.0114C65.6509 13.9318 65.8938 13.8139 66.1126 13.6577C66.3342 13.4986 66.5217 13.304 66.6751 13.0739C66.8313 12.8409 66.9407 12.5739 67.0032 12.2727H68.06C67.9805 12.7187 67.8356 13.1179 67.6254 13.4702C67.4151 13.8224 67.1538 14.1222 66.8413 14.3693C66.5288 14.6136 66.1779 14.7997 65.7887 14.9276C65.4023 15.0554 64.989 15.1193 64.5487 15.1193C63.8043 15.1193 63.1424 14.9375 62.5629 14.5739C61.9833 14.2102 61.5273 13.6932 61.195 13.0227C60.8626 12.3523 60.6964 11.5568 60.6964 10.6364C60.6964 9.71591 60.8626 8.92045 61.195 8.25C61.5273 7.57955 61.9833 7.0625 62.5629 6.69886C63.1424 6.33523 63.8043 6.15341 64.5487 6.15341C64.989 6.15341 65.4023 6.21733 65.7887 6.34517C66.1779 6.47301 66.5288 6.66051 66.8413 6.90767C67.1538 7.15199 67.4151 7.45028 67.6254 7.80256C67.8356 8.15199 67.9805 8.55114 68.06 9ZM70.6371 11.0625V15H69.6314V6.27273H70.6371V9.47727H70.7223C70.8757 9.1392 71.1058 8.87074 71.4126 8.67188C71.7223 8.47017 72.1342 8.36932 72.6484 8.36932C73.0945 8.36932 73.4851 8.45881 73.8203 8.63778C74.1555 8.81392 74.4155 9.08523 74.6001 9.4517C74.7876 9.81534 74.8814 10.2784 74.8814 10.8409V15H73.8757V10.9091C73.8757 10.3892 73.7408 9.98722 73.4709 9.70312C73.2038 9.41619 72.8331 9.27273 72.3587 9.27273C72.0291 9.27273 71.7337 9.34233 71.4723 9.48153C71.2138 9.62074 71.0092 9.82386 70.8587 10.0909C70.7109 10.358 70.6371 10.6818 70.6371 11.0625ZM78.6474 15.1534C78.2326 15.1534 77.8562 15.0753 77.5181 14.919C77.18 14.7599 76.9116 14.5312 76.7127 14.233C76.5138 13.9318 76.4144 13.5682 76.4144 13.142C76.4144 12.767 76.4883 12.4631 76.636 12.2301C76.7837 11.9943 76.9812 11.8097 77.2283 11.6761C77.4755 11.5426 77.7482 11.4432 78.0465 11.3778C78.3477 11.3097 78.6502 11.2557 78.9542 11.2159C79.3519 11.1648 79.6744 11.1264 79.9215 11.1009C80.1715 11.0724 80.3533 11.0256 80.467 10.9602C80.5835 10.8949 80.6417 10.7812 80.6417 10.6193V10.5852C80.6417 10.1648 80.5266 9.83807 80.2965 9.60511C80.0692 9.37216 79.7241 9.25568 79.261 9.25568C78.7809 9.25568 78.4045 9.3608 78.1317 9.57102C77.859 9.78125 77.6673 10.0057 77.5565 10.2443L76.6019 9.90341C76.7724 9.50568 76.9996 9.19602 77.2837 8.97443C77.5707 8.75 77.8832 8.59375 78.2212 8.50568C78.5621 8.41477 78.8974 8.36932 79.2269 8.36932C79.4371 8.36932 79.6786 8.39489 79.9513 8.44602C80.2269 8.49432 80.4925 8.59517 80.7482 8.74858C81.0067 8.90199 81.2212 9.13352 81.3917 9.44318C81.5621 9.75284 81.6474 10.1676 81.6474 10.6875V15H80.6417V14.1136H80.5906C80.5224 14.2557 80.4087 14.4077 80.2496 14.5696C80.0906 14.7315 79.8789 14.8693 79.6147 14.983C79.3505 15.0966 79.0281 15.1534 78.6474 15.1534ZM78.8008 14.25C79.1985 14.25 79.5337 14.1719 79.8065 14.0156C80.082 13.8594 80.2894 13.6577 80.4286 13.4105C80.5707 13.1634 80.6417 12.9034 80.6417 12.6307V11.7102C80.5991 11.7614 80.5053 11.8082 80.3604 11.8509C80.2184 11.8906 80.0536 11.9261 79.8661 11.9574C79.6815 11.9858 79.5011 12.0114 79.3249 12.0341C79.1516 12.054 79.011 12.071 78.9031 12.0852C78.6417 12.1193 78.3974 12.1747 78.1701 12.2514C77.9457 12.3253 77.7638 12.4375 77.6246 12.5881C77.4883 12.7358 77.4201 12.9375 77.4201 13.1932C77.4201 13.5426 77.5494 13.8068 77.8079 13.9858C78.0692 14.1619 78.4002 14.25 78.8008 14.25ZM84.4886 11.0625V15H83.483V8.45455H84.4545V9.47727H84.5398C84.6932 9.14489 84.9261 8.87784 85.2386 8.67614C85.5511 8.47159 85.9545 8.36932 86.4489 8.36932C86.892 8.36932 87.2798 8.46023 87.6122 8.64205C87.9446 8.82102 88.2031 9.09375 88.3878 9.46023C88.5724 9.82386 88.6648 10.2841 88.6648 10.8409V15H87.6591V10.9091C87.6591 10.3949 87.5256 9.99432 87.2585 9.70739C86.9915 9.41761 86.625 9.27273 86.1591 9.27273C85.8381 9.27273 85.5511 9.34233 85.2983 9.48153C85.0483 9.62074 84.8509 9.82386 84.706 10.0909C84.5611 10.358 84.4886 10.6818 84.4886 11.0625ZM93.1445 17.5909C92.6587 17.5909 92.2411 17.5284 91.8917 17.4034C91.5423 17.2812 91.2511 17.1193 91.0181 16.9176C90.788 16.7188 90.6048 16.5057 90.4684 16.2784L91.2695 15.7159C91.3604 15.8352 91.4755 15.9716 91.6147 16.125C91.7539 16.2812 91.9442 16.4162 92.1857 16.5298C92.43 16.6463 92.7496 16.7045 93.1445 16.7045C93.6729 16.7045 94.109 16.5767 94.4528 16.321C94.7965 16.0653 94.9684 15.6648 94.9684 15.1193V13.7898H94.8832C94.8093 13.9091 94.7042 14.0568 94.5678 14.233C94.4343 14.4062 94.2411 14.5611 93.9883 14.6974C93.7383 14.831 93.4002 14.8977 92.9741 14.8977C92.4457 14.8977 91.9712 14.7727 91.5508 14.5227C91.1332 14.2727 90.8022 13.9091 90.5579 13.4318C90.3164 12.9545 90.1957 12.375 90.1957 11.6932C90.1957 11.0227 90.3136 10.4389 90.5494 9.94176C90.7852 9.44176 91.1133 9.0554 91.5337 8.78267C91.9542 8.5071 92.44 8.36932 92.9911 8.36932C93.4173 8.36932 93.7553 8.44034 94.0053 8.58239C94.2582 8.72159 94.4513 8.88068 94.5849 9.05966C94.7212 9.2358 94.8263 9.38068 94.9002 9.49432H95.0025V8.45455H95.9741V15.1875C95.9741 15.75 95.8462 16.2074 95.5906 16.5597C95.3377 16.9148 94.9968 17.1747 94.5678 17.3395C94.1417 17.5071 93.6673 17.5909 93.1445 17.5909ZM93.1104 13.9943C93.5138 13.9943 93.8548 13.902 94.1332 13.7173C94.4116 13.5327 94.6232 13.267 94.7681 12.9205C94.913 12.5739 94.9854 12.1591 94.9854 11.6761C94.9854 11.2045 94.9144 10.7884 94.7724 10.4276C94.6303 10.0668 94.4201 9.78409 94.1417 9.57955C93.8633 9.375 93.5195 9.27273 93.1104 9.27273C92.6843 9.27273 92.3292 9.38068 92.0451 9.59659C91.7638 9.8125 91.5522 10.1023 91.4102 10.4659C91.271 10.8295 91.2013 11.233 91.2013 11.6761C91.2013 12.1307 91.2724 12.5327 91.4144 12.8821C91.5593 13.2287 91.7724 13.5014 92.0536 13.7003C92.3377 13.8963 92.69 13.9943 93.1104 13.9943Z" fill="#FFFFFF"/>
</svg>
